<?xml version="1.0" encoding="utf-8"?><svg viewBox="0 0 596 769" xmlns="http://www.w3.org/2000/svg" xmlns:xlink="http://www.w3.org/1999/xlink"><style>:root>svg{display:none}:root>svg:target{display:block}</style><svg viewBox="0 0 43 43" id="Burger" xmlns="http://www.w3.org/2000/svg"><g filter="url(#afilter0_d_1_6076)"><circle cx="20.5" cy="18.5" r="17.5" fill="#292929"/></g><rect x="11.75" y="14.75" width="17.5" height="1.25" rx=".625"/><rect x="11.75" y="18.5" width="17.5" height="1.25" rx=".625"/><rect x="11.75" y="22.25" width="17.5" height="1.25" rx=".625"/><defs><filter id="afilter0_d_1_6076" x="0" y="0" width="43" height="43" filterUnits="userSpaceOnUse" color-interpolation-filters="sRGB"><feFlood flood-opacity="0" result="BackgroundImageFix"/><feColorMatrix in="SourceAlpha" values="0 0 0 0 0 0 0 0 0 0 0 0 0 0 0 0 0 0 127 0" result="hardAlpha"/><feOffset dx="1" dy="3"/><feGaussianBlur stdDeviation="2"/><feColorMatrix values="0 0 0 0 0 0 0 0 0 0 0 0 0 0 0 0 0 0 0.2 0"/><feBlend in2="BackgroundImageFix" result="effect1_dropShadow_1_6076"/><feBlend in="SourceGraphic" in2="effect1_dropShadow_1_6076" result="shape"/></filter></defs></svg><svg fill="none" viewBox="0 0 596 769" id="Eword" xmlns="http://www.w3.org/2000/svg"><path opacity=".03" d="M595.085 625.827V768.56H0V0h580.812v142.733H176.769V309.62H453.6v138.341H176.769v177.866h418.316z" fill="#fff"/></svg><svg viewBox="0 0 89 67" id="Group_06" xmlns="http://www.w3.org/2000/svg"><path d="M85.021 48.804l-5.384-1.538a.547.547 0 01-.395-.524v-1.797a9.797 9.797 0 001.247-1.022 9.591 9.591 0 002.935-6.939v-2.48l.52-1.04a8.316 8.316 0 00.874-3.7v-6.72c0-.72-.584-1.303-1.303-1.303H70.969c-4.562 0-8.274 3.712-8.274 8.274v.077c0 1.063.252 2.127.727 3.077l.667 1.335v2.13c0 3.374 1.663 6.402 4.182 8.224v1.884c0 .29 0 .41-1.076.718l-2.627.75-7.6-2.763a1.302 1.302 0 00-.356-.998l-2.428-2.551v-4.283c.257-.212.51-.43.755-.659a15.301 15.301 0 004.82-11.123v-3.421a15.068 15.068 0 001.395-6.337V2.135c0-.72-.584-1.303-1.304-1.303H40.335c-6.868 0-12.456 5.587-12.456 12.455v2.788c0 2.194.47 4.324 1.394 6.337v2.944c0 4.873 2.167 9.264 5.576 12.158v4.384l-2.428 2.551c-.262.275-.383.64-.356.999l-8.021 2.916a6.835 6.835 0 00-1.612.845l-1.26-.63c3.75-1.632 4.938-3.928 4.995-4.042.183-.367.183-.799 0-1.166-.94-1.88-1.054-5.325-1.145-8.093a70.48 70.48 0 00-.115-2.568c-.444-6.253-5.198-10.969-11.058-10.969-5.86 0-10.614 4.716-11.058 10.97a70.53 70.53 0 00-.114 2.567c-.092 2.768-.206 6.213-1.145 8.093-.184.367-.184.8 0 1.166.057.114 1.242 2.405 4.999 4.039l-3.499 1.75A5.457 5.457 0 000 55.231v9.632a1.304 1.304 0 002.607 0v-9.632c0-1.097.61-2.084 1.591-2.574l4.357-2.179 1.515 1.44a5.47 5.47 0 003.78 1.51c1.359 0 2.719-.503 3.778-1.51l1.515-1.44 1.42.71a6.865 6.865 0 00-1.048 3.64v10.035a1.304 1.304 0 002.608 0V54.83c0-1.79 1.13-3.404 2.812-4.015l8.457-3.075 3.52 5.28a2.687 2.687 0 002.248 1.202c.713 0 1.395-.28 1.905-.79l2.148-2.148v13.58a1.304 1.304 0 002.607 0v-13.58l2.148 2.148a2.686 2.686 0 002.173.777 2.688 2.688 0 001.98-1.188l3.52-5.281 8.457 3.075a4.285 4.285 0 012.812 4.015v10.034a1.304 1.304 0 002.607 0V54.83c0-1.813-.72-3.513-1.928-4.77l.322-.092a7.15 7.15 0 001.213-.438l3.329 3.329v12.005a1.304 1.304 0 002.607 0V52.86l3.306-3.306c.176.09.36.165.555.22l5.384 1.539a2.89 2.89 0 012.088 2.767v10.785a1.304 1.304 0 002.607 0V54.08a5.51 5.51 0 00-3.979-5.275zM8.364 46.501c-2.439-.877-3.662-2.047-4.184-2.686.356-.93.587-1.996.743-3.122a9.722 9.722 0 003.44 4.246V46.5zm7.468 3.529a2.877 2.877 0 01-3.965 0l-1.213-1.153c.205-.383.317-.818.317-1.273v-1.39a9.696 9.696 0 005.756 0v1.39c0 .456.113.89.317 1.274l-1.212 1.152zm-1.982-5.985a7.068 7.068 0 01-7.06-7.06A1.304 1.304 0 005.272 35.7l.012-.335c.029-.897.057-1.744.108-2.47.167-2.342 1.103-4.5 2.636-6.078a8.058 8.058 0 015.822-2.468c2.207 0 4.274.876 5.821 2.468 1.533 1.577 2.47 3.736 2.636 6.078.052.726.08 1.573.11 2.47l.007.232c-1.418-2.186-3.609-3.796-6.44-4.706-2.614-.84-4.863-.788-4.958-.785-.342.01-.666.152-.903.398l-2.352 2.44a1.304 1.304 0 101.877 1.81l1.957-2.03c1.686.082 7.109.713 9.218 5.357a7.043 7.043 0 01-6.973 5.964zm5.485 2.46v-1.554a9.643 9.643 0 003.442-4.25c.156 1.122.387 2.186.742 3.114-.52.633-1.748 1.814-4.184 2.69zm12.546-21.15v-3.234c0-.197-.045-.39-.13-.567a12.505 12.505 0 01-1.264-5.479v-2.788c0-5.43 4.418-9.848 9.848-9.848h18.211v12.636c0 1.899-.425 3.742-1.264 5.479-.085.177-.13.37-.13.567v3.712c0 3.53-1.419 6.805-3.996 9.221-.322.301-.656.584-1.001.847l-.022.017c-2.415 1.833-5.372 2.724-8.46 2.524-6.613-.429-11.792-6.177-11.792-13.087zm7.34 26.233c-.009.009-.03.03-.072.026a.083.083 0 01-.067-.04l-4.054-6.082 1.305-1.37 6.15 4.203-3.262 3.263zm5.296-5.031l-7.06-4.826v-2.434a14.678 14.678 0 007.073 1.78 15.1 15.1 0 007.047-1.727v2.38l-7.06 4.827zm5.434 5.017a.083.083 0 01-.066.04c-.043.006-.064-.017-.073-.026l-3.262-3.262 6.15-4.205 1.305 1.371-4.054 6.082zm23.806-1.1l-2.959-2.958c.052-.235.08-.491.08-.774v-.55a9.144 9.144 0 002.882.46c.99 0 1.956-.15 2.875-.435v.525c0 .26.033.515.094.76l-2.972 2.972zm4.916-8.422a7.007 7.007 0 01-5.134 1.99c-3.773-.114-6.842-3.437-6.842-7.408v-2.437c0-.203-.047-.402-.138-.583l-.805-1.611a4.295 4.295 0 01-.451-1.91v-.078a5.673 5.673 0 015.666-5.666H82.21v5.414c0 .875-.207 1.752-.598 2.534l-.659 1.317c-.09.18-.137.38-.137.583v2.788a7.004 7.004 0 01-2.144 5.067z"/></svg><svg viewBox="0 0 20 50" id="Vector" xmlns="http://www.w3.org/2000/svg"><path d="M1.676 49.15l16.37-24.92L1.821.998" stroke="#fff" stroke-width="2"/></svg><svg viewBox="0 0 75 75" id="browser_05" xmlns="http://www.w3.org/2000/svg"><g clip-path="url(#eclip0_1_4687)"><path d="M8.023 4.218a3.228 3.228 0 00-3.225 3.225 3.228 3.228 0 003.225 3.224 3.228 3.228 0 003.224-3.224 3.228 3.228 0 00-3.224-3.225zm0 4.251a1.028 1.028 0 010-2.053c.566 0 1.027.46 1.027 1.027 0 .566-.461 1.026-1.027 1.026zM16.233 4.218a3.228 3.228 0 00-3.225 3.225 3.229 3.229 0 003.225 3.224 3.228 3.228 0 003.224-3.224 3.228 3.228 0 00-3.224-3.225zm0 4.251a1.028 1.028 0 010-2.053c.566 0 1.027.46 1.027 1.027 0 .566-.461 1.026-1.027 1.026zM24.443 4.218a3.228 3.228 0 00-3.225 3.225 3.228 3.228 0 003.225 3.224 3.228 3.228 0 003.224-3.224 3.228 3.228 0 00-3.224-3.225zm0 4.251a1.028 1.028 0 010-2.053c.566 0 1.027.46 1.027 1.027 0 .566-.46 1.026-1.027 1.026z"/><path d="M70.164 0H4.836A4.841 4.841 0 000 4.836v65.328A4.842 4.842 0 004.836 75h65.328A4.842 4.842 0 0075 70.164V53.518a1.1 1.1 0 10-2.198 0v16.646a2.641 2.641 0 01-2.638 2.638H4.836a2.641 2.641 0 01-2.638-2.638V14.947h70.604v31.784a1.099 1.099 0 002.198 0V4.836A4.841 4.841 0 0070.164 0zm2.638 12.75H2.198V4.835a2.64 2.64 0 012.638-2.638h65.328a2.641 2.641 0 012.638 2.638v7.913z"/><path d="M67.6 22.695a3.479 3.479 0 00-3.475-3.475H10.71a3.479 3.479 0 00-3.474 3.475v6.454a1.099 1.099 0 102.198 0v-6.454c0-.705.572-1.277 1.276-1.277h53.414c.704 0 1.276.572 1.276 1.277V42.81c0 .704-.572 1.277-1.276 1.277h-3.46L49.403 31.392a1.804 1.804 0 00-2.627-.078l-5.966 5.963-8.037-9.057a1.81 1.81 0 00-1.296-.607 1.822 1.822 0 00-1.33.528L14.191 44.087h-3.48a1.278 1.278 0 01-1.277-1.277v-6.727a1.1 1.1 0 10-2.198 0v6.727a3.478 3.478 0 003.474 3.474h53.414a3.478 3.478 0 003.474-3.474V22.695zM17.3 44.087L31.405 29.99l10.693 12.05a1.098 1.098 0 101.644-1.458l-1.471-1.658 5.764-5.761 9.693 10.924H17.301zM10.71 49.361a3.477 3.477 0 00-3.473 3.474v10.78a3.477 3.477 0 003.473 3.474h21.256a3.478 3.478 0 003.474-3.474v-10.78a3.478 3.478 0 00-3.474-3.474H10.71zm22.532 3.474v10.78c0 .704-.573 1.276-1.276 1.276H10.71a1.277 1.277 0 01-1.275-1.276v-10.78c0-.704.572-1.276 1.275-1.276h21.256c.703 0 1.276.572 1.276 1.276zM42.87 49.361a3.477 3.477 0 00-3.474 3.474v10.78a3.477 3.477 0 003.474 3.474h21.255a3.478 3.478 0 003.474-3.474v-10.78a3.478 3.478 0 00-3.474-3.474H42.87zM65.4 52.835v10.78c0 .704-.572 1.276-1.276 1.276H42.87a1.277 1.277 0 01-1.276-1.276v-10.78c0-.704.572-1.276 1.276-1.276h21.255c.704 0 1.276.572 1.276 1.276z"/><path d="M12.84 55.704h2.972a1.098 1.098 0 100-2.198H12.84a1.1 1.1 0 100 2.198zM12.84 59.427h1.546a1.099 1.099 0 000-2.197H12.84a1.099 1.099 0 100 2.197zM29.836 57.23h-4.102a1.099 1.099 0 100 2.197h4.102a1.098 1.098 0 100-2.197zM19.58 55.704h9.963a1.099 1.099 0 100-2.198H19.58a1.099 1.099 0 000 2.198zM29.543 60.746h-2.971a1.099 1.099 0 100 2.198h2.97a1.1 1.1 0 000-2.198zM22.803 60.746h-9.962a1.099 1.099 0 100 2.198h9.963a1.099 1.099 0 000-2.198zM17.792 59.427h4.28a1.099 1.099 0 000-2.197h-4.28a1.099 1.099 0 100 2.197zM45 55.704h2.97a1.098 1.098 0 100-2.198H45a1.1 1.1 0 100 2.198zM45 59.427h1.545a1.099 1.099 0 100-2.197H45a1.099 1.099 0 100 2.197zM61.995 57.23h-4.102a1.099 1.099 0 100 2.197h4.102a1.099 1.099 0 100-2.197zM51.74 55.704h9.962a1.099 1.099 0 100-2.198h-9.963a1.1 1.1 0 100 2.198zM61.702 60.746h-2.971a1.099 1.099 0 000 2.198h2.971a1.099 1.099 0 000-2.198zM54.962 60.746H45a1.099 1.099 0 100 2.198h9.962a1.1 1.1 0 000-2.198zM49.951 59.427h4.28a1.099 1.099 0 100-2.197h-4.28a1.099 1.099 0 100 2.197zM59.96 27.36a4.19 4.19 0 00-4.185-4.184 4.19 4.19 0 00-4.184 4.185 4.19 4.19 0 004.184 4.185 4.19 4.19 0 004.185-4.185zm-6.172 0c0-1.095.891-1.986 1.987-1.986s1.987.89 1.987 1.987a1.99 1.99 0 01-1.987 1.987 1.989 1.989 0 01-1.987-1.987z"/></g><defs><clipPath id="eclip0_1_4687"><path fill="#fff" d="M0 0h75v75H0z"/></clipPath></defs></svg><svg viewBox="0 0 81 81" id="consultation_01" xmlns="http://www.w3.org/2000/svg"><g clip-path="url(#fclip0_1_4535)"><path d="M40.5 21.08l9.618-8.015H62.71V0H31.355v13.065H40.5v8.014zm-6.532-10.628v-7.84h26.129v7.84H49.172l-6.06 5.05v-5.05h-9.144z"/><path d="M36.58 5.226h2.614v2.613H36.58V5.226zM41.806 5.226h10.452v2.613H41.806V5.226zM54.87 5.226h2.614v2.613H54.87V5.226zM66.505 78.387l-1.057-10.576c4.362-.69 7.713-4.467 7.713-9.02V41.805h-5.225v-1.805a4.7 4.7 0 00-2.546-4.188 7.808 7.808 0 002.546-5.765v-2.613c0-4.323-3.516-7.838-7.84-7.838-4.322 0-7.838 3.515-7.838 7.838v2.613c0 3.383 2.157 6.262 5.165 7.36l-7.012 7.011h-7.327c-.146-2.178-1.642-4.076-3.761-4.682l-5.355-1.529v-2.333a7.812 7.812 0 002.613-5.827v-2.613c0-4.323-3.516-7.838-7.84-7.838-4.322 0-7.838 3.515-7.838 7.838v2.613a7.816 7.816 0 002.613 5.827v2.335l-5.355 1.528a5.246 5.246 0 00-3.79 5.025v4.882H9.145v7.839h2.613v20.903H0V81h81v-2.613H66.505zM54.87 57.484v-5.992l9.257-9.257a4.092 4.092 0 001.157-2.506c.011.092.038.178.038.272v16.176c0 2.16-1.76 3.92-3.92 3.92H50.952v-2.613h3.919zm-3.92 10.451h6.657l1.045 10.452h-7.701V67.935zm9.283 0h2.6l1.045 10.452h-2.6l-1.045-10.452zm7.702-11.758V44.42h2.612V58.79a6.54 6.54 0 01-6.532 6.533H50.952V62.71h10.451a6.54 6.54 0 006.533-6.533zM54.87 30.048v-2.613a5.231 5.231 0 015.226-5.225 5.231 5.231 0 015.226 5.225v2.613a5.231 5.231 0 01-5.226 5.226 5.231 5.231 0 01-5.226-5.226zm-3.378 16.984l8.716-8.716a1.466 1.466 0 012.072 2.072l-9.257 9.257h-13.83a1.307 1.307 0 010-2.613h12.299zM23.516 27.435a5.231 5.231 0 015.226-5.225 5.231 5.231 0 015.226 5.225v2.613a5.231 5.231 0 01-5.226 5.226 5.231 5.231 0 01-5.226-5.226v-2.613zm5.226 10.452c.917 0 1.794-.167 2.613-.457v1.403c-.324.5-1.224 1.667-2.613 1.667s-2.289-1.167-2.613-1.667V37.43a7.8 7.8 0 002.613.457zm-11.758 6.876c0-1.161.78-2.194 1.894-2.513l5.383-1.537c.757.987 2.232 2.4 4.48 2.4 2.25 0 3.724-1.413 4.482-2.401l5.382 1.537c1.001.286 1.7 1.157 1.839 2.169h-1.25a3.924 3.924 0 00-3.92 3.92c0 .46.094.896.24 1.306h-18.53v-4.88zm-5.226 7.495h40.5v2.613h-40.5v-2.613zm2.613 10.452h3.92v-2.613h-3.92v-2.613h33.968v2.613H20.903v2.613H48.34v15.677h-3.112l-2.613-5.226H20.096l-2.613 5.226H14.37V62.71zm27.934 15.677h-21.9l1.306-2.613h19.288l1.306 2.613z"/></g><defs><clipPath id="fclip0_1_4535"><path fill="#fff" d="M0 0h81v81H0z"/></clipPath></defs></svg><svg viewBox="0 0 75 75" id="contract_03" xmlns="http://www.w3.org/2000/svg"><g clip-path="url(#gclip0_1_4608)"><path d="M74.862 17.785a3.748 3.748 0 00-1.75-2.275 3.75 3.75 0 00-5.124 1.375l-.624 1.087a1.25 1.25 0 00-1.7.45l-3.175 5.412-1.087-.625a1.251 1.251 0 00-1.712.462 1.25 1.25 0 00.462 1.7l1.088.625-10.624 18.409-2.624 7.012-1.25 2.336a3.75 3.75 0 00.2 4.05l-2.812 3.45-.787-1.975a2.499 2.499 0 00-4.462-.35l-.45.762-.425-5a2.5 2.5 0 00-4.861-.586l-3.075 9.223a1.25 1.25 0 00.787 1.575c.122.057.253.09.388.1a1.25 1.25 0 001.187-.85l3.062-9.223.438 5.073a2.5 2.5 0 004.636 1.075l.463-.762.775 1.962a2.499 2.499 0 004.274.637l2.912-3.686c.322.084.654.126.987.125a3.75 3.75 0 003.262-1.85l1.25-2.087 4.762-5.787 10.735-18.634 1.088.625a1.25 1.25 0 01.462 1.712l-4.999 8.661a1.248 1.248 0 00.4 1.762 1.249 1.249 0 001.712-.462l5-8.661a3.747 3.747 0 00-1.376-5.124l-1.087-.625 3.124-5.412a1.25 1.25 0 00-.45-1.7l.626-1.087a3.748 3.748 0 00.374-2.9zm-4.712.35c.166-.29.44-.502.763-.588.321-.079.66-.034.95.125.29.166.5.44.588.763.079.32.034.66-.126.95l-.624 1.087-2.175-1.25.624-1.088zM53.116 53.028l-.625-.363-1.85-1.075 1.775-4.749 3.937 2.275-3.237 3.912zm-3.75 3.611a1.249 1.249 0 01-.374-1.637l.625-1.087 2.174 1.25-.625 1.075a1.25 1.25 0 01-1.8.4zm8.412-9.572l-4.325-2.5 9.999-17.323 4.324 2.5-9.998 17.323zm11.248-19.485l-4.324-2.5 2.5-4.324 4.323 2.5-2.5 4.324zM19.721 56.016l-4.423 4.412-2.65-2.65a1.25 1.25 0 10-1.762 1.775l2.65 2.65a2.499 2.499 0 001.762.724 2.5 2.5 0 001.774-.725l4.412-4.424a1.25 1.25 0 00-1.763-1.762z"/><path d="M5 59.377c0 5.868 4.755 10.624 10.622 10.624s10.623-4.756 10.623-10.624a1.25 1.25 0 00-2.5 0 8.124 8.124 0 11-8.123-8.123 8.053 8.053 0 014.874 1.625 1.25 1.25 0 101.5-2A10.625 10.625 0 005 59.377zM44.992 10.01a1.25 1.25 0 100-2.499H12.498c-.69 0-1.25.56-1.25 1.25v5c0 .69.56 1.249 1.25 1.249h32.494a1.25 1.25 0 100-2.5H13.748v-2.5h31.244zM16.247 17.51a1.25 1.25 0 000 2.5h24.996a1.25 1.25 0 100-2.5H16.247zM48.742 26.258H21.246a1.25 1.25 0 000 2.5h27.496a1.25 1.25 0 100-2.5zM36.244 35.007c0-.69-.56-1.25-1.25-1.25H9.998a1.25 1.25 0 000 2.5h24.996c.69 0 1.25-.56 1.25-1.25zM48.742 33.757h-8.749a1.25 1.25 0 000 2.5h8.749a1.25 1.25 0 100-2.5zM22.496 42.505a1.25 1.25 0 100-2.5H9.998a1.25 1.25 0 000 2.5h12.498zM27.495 42.505h8.749a1.25 1.25 0 100-2.5h-8.749a1.25 1.25 0 000 2.5z"/><path d="M56.24 57.503c-.69 0-1.25.56-1.25 1.25V71.25c0 .691-.559 1.25-1.25 1.25H3.75a1.25 1.25 0 01-1.25-1.25V3.762c0-.69.56-1.25 1.25-1.25h49.99c.691 0 1.25.56 1.25 1.25v23.471a1.25 1.25 0 002.5 0V3.762a3.75 3.75 0 00-3.75-3.75H3.75A3.75 3.75 0 000 3.762V71.25A3.75 3.75 0 003.75 75h49.99a3.75 3.75 0 003.75-3.75V58.752c0-.69-.56-1.25-1.25-1.25z"/></g><defs><clipPath id="gclip0_1_4608"><path fill="#fff" d="M0 0h75v75H0z"/></clipPath></defs></svg><svg viewBox="0 0 75 75" id="data_04" xmlns="http://www.w3.org/2000/svg"><g clip-path="url(#hclip0_1_4641)"><path d="M8.637 27.473a1.095 1.095 0 001.552 0 1.098 1.098 0 000-1.553l-2.665-2.665 2.665-2.665a1.098 1.098 0 00-1.552-1.552l-3.441 3.441a1.098 1.098 0 000 1.552l3.44 3.442zM19.53 23.255l-2.666 2.665a1.097 1.097 0 001.552 1.553l3.442-3.442a1.097 1.097 0 000-1.552l-3.442-3.442a1.097 1.097 0 10-1.551 1.553l2.664 2.665zM11.89 27.718a1.1 1.1 0 001.423-.62l2.704-6.883a1.098 1.098 0 00-2.043-.803l-2.704 6.883a1.098 1.098 0 00.62 1.423zM6.593 34.234h7.395a1.098 1.098 0 000-2.196H6.593a1.097 1.097 0 100 2.196zM31.019 32.038h-13a1.098 1.098 0 000 2.196h13a1.098 1.098 0 100-2.196zM6.593 38.864h3.15a1.098 1.098 0 000-2.196h-3.15a1.097 1.097 0 100 2.196zM27.003 36.668a1.097 1.097 0 100 2.196h1.918a1.098 1.098 0 100-2.196h-1.918zM24.114 37.765c0-.605-.492-1.097-1.097-1.097h-9.422a1.097 1.097 0 100 2.196h9.422c.605 0 1.097-.492 1.097-1.099zM31.304 37.765c0 .607.492 1.099 1.098 1.099h3.593a1.098 1.098 0 100-2.196h-3.593c-.606 0-1.098.492-1.098 1.097zM25.327 24.136h3.79a1.098 1.098 0 100-2.196h-3.79a1.098 1.098 0 100 2.195zM33.36 24.136h23.124a1.097 1.097 0 100-2.196H33.361a1.098 1.098 0 100 2.195zM52.972 26.77h-9.367a1.098 1.098 0 000 2.195h9.367a1.098 1.098 0 000-2.196zM40.093 26.77h-3.22a1.097 1.097 0 100 2.195h3.22a1.097 1.097 0 100-2.196zM25.327 28.965h7.887a1.098 1.098 0 000-2.196h-7.887a1.098 1.098 0 100 2.196zM23.03 41.259h-7.394a1.098 1.098 0 100 2.195h7.394a1.098 1.098 0 000-2.195zM12.274 41.259H6.593a1.097 1.097 0 100 2.195h5.68a1.097 1.097 0 100-2.195zM36.434 41.259h-9.66a1.097 1.097 0 100 2.195h9.66a1.098 1.098 0 000-2.195zM49.497 35.62h-5.282a1.098 1.098 0 000 2.196h5.282a1.097 1.097 0 100-2.196zM58.663 37.816h7.456a1.098 1.098 0 100-2.196h-7.456a1.097 1.097 0 100 2.196zM54.934 35.62h-1.709a1.098 1.098 0 100 2.196h1.71a1.097 1.097 0 100-2.196zM44.215 49.777h5.282a1.097 1.097 0 100-2.195h-5.282a1.098 1.098 0 000 2.195zM58.663 49.777h7.456a1.097 1.097 0 100-2.195h-7.456a1.097 1.097 0 100 2.195zM53.226 49.777h1.708a1.097 1.097 0 100-2.195h-1.708a1.097 1.097 0 100 2.195zM49.497 59.544h-5.282a1.098 1.098 0 000 2.195h5.282a1.097 1.097 0 100-2.195zM66.12 59.544h-7.457a1.097 1.097 0 100 2.195h7.456a1.098 1.098 0 100-2.195zM54.934 59.544h-1.709a1.098 1.098 0 100 2.195h1.71a1.097 1.097 0 100-2.195z"/><path d="M70.17.146H4.83A4.837 4.837 0 000 4.977v53.11a4.837 4.837 0 004.831 4.831h4.13a1.097 1.097 0 100-2.194h-4.13a2.638 2.638 0 01-2.635-2.636v-4.164h39.99v1.892h-.871a2.16 2.16 0 00-2.159 2.159v2.748h-23.52a1.098 1.098 0 000 2.196h10.553v3.936h-3.314a4.014 4.014 0 00-4.01 4.01v2.37c0 1.01.821 1.83 1.83 1.83h33.527c1.008 0 1.83-.82 1.83-1.83v-2.37c0-2.21-1.8-4.01-4.01-4.01h-3.315v-1.387H69.02a2.16 2.16 0 002.158-2.16v-.516a4.838 4.838 0 003.739-4.704L75 4.977a4.835 4.835 0 00-4.83-4.83zM41.352 51.311v-5.262h27.631v5.262H41.352zm3.028-7.457v-2.31h21.574v2.31H44.38zm21.574 9.652v2.31H44.38v-2.31h21.574zm-37.57 9.413h10.772v.39a2.16 2.16 0 002.159 2.159h5.217v1.387H28.384v-3.937zm23.658 6.132c1 0 1.814.814 1.814 1.814v2.005H21.061v-2.005c0-1 .814-1.814 1.814-1.814h29.167zm16.941-5.779H41.352v-5.26h27.631v5.26zm3.739-5.184c0 1.063-.634 1.98-1.543 2.395v-2.509c0-1.19-.97-2.158-2.16-2.158h-.87v-1.892h4.573v4.164zm0-6.359h-1.58c.023-.124.037-5.716.037-5.716 0-1.191-.97-2.16-2.16-2.16h-.87v-2.309h.87c1.19 0 2.16-.968 2.16-2.159v-5.334c0-1.19-.97-2.16-2.16-2.16h-6.2a1.097 1.097 0 100 2.196h6.164v5.262H41.352v-5.262H55.99a1.097 1.097 0 100-2.195H41.315c-1.19 0-2.159.968-2.159 2.159v5.334c0 1.19.968 2.16 2.159 2.16h.87v2.309h-.87c-1.19 0-2.159.968-2.159 2.159 0 0 .014 5.592.036 5.716H2.196V15.077h70.526V51.73zm0-38.847H2.276V4.977a2.638 2.638 0 012.636-2.635h65.174a2.638 2.638 0 012.636 2.635v7.905z"/><path d="M8.095 4.36a3.224 3.224 0 00-3.221 3.22 3.225 3.225 0 003.221 3.222 3.226 3.226 0 003.221-3.222 3.225 3.225 0 00-3.221-3.22zm0 4.246c-.565 0-1.026-.46-1.026-1.026 0-.565.46-1.026 1.026-1.026a1.027 1.027 0 010 2.052zM16.297 4.36a3.225 3.225 0 00-3.222 3.22 3.225 3.225 0 003.222 3.222 3.225 3.225 0 003.22-3.222 3.225 3.225 0 00-3.22-3.22zm0 4.246a1.027 1.027 0 010-2.052 1.027 1.027 0 010 2.052zM24.497 4.36a3.224 3.224 0 00-3.22 3.22 3.225 3.225 0 003.22 3.222A3.226 3.226 0 0027.72 7.58a3.225 3.225 0 00-3.222-3.22zm0 4.246c-.565 0-1.026-.46-1.026-1.026 0-.565.46-1.026 1.026-1.026a1.027 1.027 0 010 2.052z"/></g><defs><clipPath id="hclip0_1_4641"><path fill="#fff" d="M0 0h75v75H0z"/></clipPath></defs></svg><svg viewBox="0 0 88 88" id="fing_box" xmlns="http://www.w3.org/2000/svg"><g opacity=".15"><path d="M48.109 51.176V46.35a3.455 3.455 0 00-3.452-3.452 3.455 3.455 0 00-3.451 3.452v4.358a21.189 21.189 0 01-5.448 14.197l-4.844 5.382a1.102 1.102 0 001.638 1.474l4.844-5.382a23.39 23.39 0 006.013-15.671V46.35c0-.689.56-1.248 1.248-1.248.689 0 1.249.56 1.249 1.248v4.826a25.87 25.87 0 01-6.742 17.438l-4.721 5.194a1.102 1.102 0 001.63 1.481l4.721-5.193a28.068 28.068 0 007.315-18.92z"/><path d="M52.809 46.35c0-4.495-3.657-8.151-8.152-8.151-4.494 0-8.15 3.656-8.15 8.15v4.359c0 4.089-1.507 8.014-4.242 11.053l-3.444 3.826a1.102 1.102 0 101.638 1.474l3.443-3.826a18.696 18.696 0 004.807-12.527V46.35a5.955 5.955 0 015.948-5.948 5.955 5.955 0 015.949 5.948v4.827a30.56 30.56 0 01-7.964 20.598l-3.984 4.383a1.101 1.101 0 101.63 1.481l3.984-4.382a32.76 32.76 0 008.537-22.08V46.35z"/><path d="M57.508 46.35c0-7.086-5.765-12.851-12.85-12.851-7.087 0-12.852 5.765-12.852 12.85v4.359c0 2.925-1.078 5.734-3.035 7.909l-3.1 3.445a1.102 1.102 0 001.637 1.474l3.1-3.445a14.004 14.004 0 003.601-9.383V46.35c0-5.872 4.777-10.648 10.648-10.648 5.872 0 10.648 4.776 10.648 10.648v4.827a35.25 35.25 0 01-9.186 23.76l-1.102 1.212a1.102 1.102 0 001.63 1.482l1.102-1.213a37.449 37.449 0 009.76-25.241V46.35z"/><path d="M27.107 46.35a1.101 1.101 0 102.203 0c0-3.71 1.346-7.292 3.792-10.09a15.353 15.353 0 019.362-5.102 1.102 1.102 0 00-.313-2.18 17.556 17.556 0 00-10.708 5.833 17.528 17.528 0 00-4.336 11.539zM29.31 50.708a1.101 1.101 0 10-2.203 0c0 1.762-.65 3.455-1.829 4.765l-2.758 3.064a1.101 1.101 0 101.638 1.474l2.758-3.065a9.312 9.312 0 002.393-6.238zM60.046 60.54a1.102 1.102 0 00-1.345.788 40.016 40.016 0 01-1.504 4.59 1.101 1.101 0 102.049.812 42.25 42.25 0 001.587-4.845 1.102 1.102 0 00-.787-1.344zM56.38 33.298a1.101 1.101 0 10-1.473 1.638 15.375 15.375 0 015.098 11.414v4.826c0 1.832-.127 3.678-.376 5.487a1.101 1.101 0 102.183.3c.263-1.907.396-3.855.396-5.787V46.35a17.58 17.58 0 00-5.828-13.052zM51.23 32.482a1.102 1.102 0 00.947-1.989 17.406 17.406 0 00-5.013-1.515 1.101 1.101 0 10-.314 2.18c1.52.219 2.993.664 4.38 1.324z"/><path d="M44.657 24.1c-.412 0-.829.01-1.239.033a1.102 1.102 0 00.121 2.2c.37-.02.746-.03 1.118-.03 11.054 0 20.047 8.992 20.047 20.047v4.826a1.101 1.101 0 102.204 0V46.35c0-12.269-9.982-22.25-22.25-22.25zM32.614 30.076c.216 0 .436-.064.627-.197a19.932 19.932 0 015.983-2.829 1.102 1.102 0 00-.598-2.12 22.13 22.13 0 00-6.642 3.14 1.101 1.101 0 00.63 2.006zM24.61 50.708V46.35a19.96 19.96 0 015.464-13.742 1.102 1.102 0 00-1.603-1.511 22.155 22.155 0 00-6.064 15.253v4.358c0 .6-.221 1.175-.622 1.62l-1.358 1.51a1.101 1.101 0 001.637 1.473l1.359-1.509a4.62 4.62 0 001.187-3.094zM70.209 37.773a26.8 26.8 0 00-5.707-9.64 1.102 1.102 0 10-1.622 1.49 24.611 24.611 0 015.24 8.853 1.102 1.102 0 002.089-.703zM53.362 20.842a1.101 1.101 0 00-.713 2.084 24.676 24.676 0 016.778 3.58 1.1 1.1 0 101.318-1.766 26.877 26.877 0 00-7.383-3.898z"/><path d="M27.542 28.492a24.623 24.623 0 0117.115-6.89c1.19 0 2.385.086 3.554.255a1.1 1.1 0 10.315-2.18 27.192 27.192 0 00-3.869-.277c-6.974 0-13.594 2.664-18.64 7.502-5.03 4.823-7.971 11.295-8.282 18.224a1.101 1.101 0 102.2.099c.286-6.361 2.988-12.304 7.607-16.733z"/><path d="M44.657 14.7c-2.463 0-4.918.285-7.295.848a1.102 1.102 0 10.508 2.144 29.504 29.504 0 016.787-.79c8.078 0 15.617 3.219 21.23 9.062a1.098 1.098 0 001.558.031 1.101 1.101 0 00.03-1.557 31.605 31.605 0 00-10.21-7.118 31.36 31.36 0 00-12.608-2.62zM19.915 28.418a1.1 1.1 0 001.546-.188 29.637 29.637 0 0111.952-9.096 1.102 1.102 0 00-.844-2.035 31.844 31.844 0 00-12.843 9.772c-.375.48-.29 1.172.189 1.547zM29.384 15.688c.16 0 .324-.036.478-.11a33.753 33.753 0 0114.795-3.375c2.7 0 5.388.318 7.99.944a1.102 1.102 0 00.515-2.142A36.392 36.392 0 0044.657 10a35.938 35.938 0 00-15.753 3.594 1.102 1.102 0 00.48 2.094zM57.251 14.61a34.1 34.1 0 013.34 1.544 1.101 1.101 0 101.032-1.947 36.325 36.325 0 00-3.557-1.645 1.102 1.102 0 10-.815 2.047z"/></g><path d="M15.469 0H1.719C.769 0 0 .77 0 1.719v13.75a1.719 1.719 0 003.438 0V3.438h12.03a1.719 1.719 0 000-3.438zM86.281 0h-13.75a1.719 1.719 0 000 3.438h12.031v12.03a1.719 1.719 0 003.438 0V1.719C88 .77 87.23 0 86.281 0zM15.469 84.563H3.438V72.53a1.719 1.719 0 00-3.438 0v13.75C0 87.231.77 88 1.719 88h13.75a1.719 1.719 0 000-3.438zM86.281 70.813c-.949 0-1.719.769-1.719 1.718v12.031h-12.03a1.719 1.719 0 000 3.438h13.75C87.23 88 88 87.23 88 86.281v-13.75c0-.949-.77-1.719-1.719-1.719z"/></svg><svg viewBox="0 0 10 12" id="letter" xmlns="http://www.w3.org/2000/svg"><path d="M9.499 3.04a.28.28 0 00-.082-.19L6.65.081A.28.28 0 006.45 0H1.092a.592.592 0 00-.591.591v10.817c0 .327.265.592.591.592h7.816a.592.592 0 00.591-.591v-8.36-.01zM6.732.96L8.54 2.766H6.85a.119.119 0 01-.118-.118V.959zm2.205 10.448a.03.03 0 01-.03.03H1.093a.03.03 0 01-.03-.03V.591a.03.03 0 01.03-.03H6.17V2.65c0 .375.305.68.68.68h2.087v8.08z"/></svg><svg viewBox="0 0 44 44" fill="none" id="love" xmlns="http://www.w3.org/2000/svg"><g clip-path="url(#kclip0_1_5835)" fill="#fff"><path d="M34.947.26H9.52C7.73.26 6.024.82 4.59 1.882a.63.63 0 10.75 1.014A6.974 6.974 0 019.52 1.52h25.427a7.04 7.04 0 017.032 7.031V25.23a7.04 7.04 0 01-7.032 7.031H24.2c-.26 0-.51.109-.688.298l-8.632 9.177a.428.428 0 01-.486.109.427.427 0 01-.28-.412v-8.227a.946.946 0 00-.945-.945h-3.65a7.04 7.04 0 01-7.03-7.031V8.551c0-1.426.424-2.8 1.227-3.97a.63.63 0 00-1.04-.714 8.248 8.248 0 00-1.448 4.684V25.23c0 4.572 3.72 8.292 8.292 8.292h3.333v7.91c0 .704.422 1.326 1.076 1.585a1.696 1.696 0 001.87-.417l8.538-9.078h10.61c4.573 0 8.292-3.72 8.292-8.292V8.55C43.24 3.98 39.52.26 34.948.26z"/><path d="M31.288 10.387a5.618 5.618 0 00-7.936 0l-1.098 1.099c-.003.003-.012.012-.03.012a.038.038 0 01-.028-.012l-1.081-1.081a5.618 5.618 0 00-7.936 0 5.618 5.618 0 000 7.936l8.126 8.126c.246.246.573.381.92.381.348 0 .675-.135.92-.381L27.612 22a.63.63 0 10-.891-.891l-4.466 4.466a.038.038 0 01-.029.012.038.038 0 01-.028-.012L14.07 17.45a4.356 4.356 0 010-6.153 4.356 4.356 0 016.153 0l1.082 1.081c.245.246.572.381.92.381.347 0 .674-.135.92-.38l1.099-1.1a4.356 4.356 0 016.153 0 4.356 4.356 0 010 6.154l-1.882 1.882a.63.63 0 10.891.891l1.882-1.882a5.618 5.618 0 000-7.936z"/></g><defs><clipPath id="kclip0_1_5835"><path fill="#fff" transform="translate(.794 .26)" d="M0 0h42.878v42.878H0z"/></clipPath></defs></svg><svg viewBox="0 0 15 15" id="mobil_sign" xmlns="http://www.w3.org/2000/svg"><path d="M.744 7.5A6.761 6.761 0 007.5 14.256 6.761 6.761 0 0014.256 7.5C14.256 3.779 11.22.744 7.5.744S.744 3.78.744 7.5zm12.558 0A5.811 5.811 0 017.5 13.302 5.811 5.811 0 011.698 7.5 5.811 5.811 0 017.5 1.698 5.811 5.811 0 0113.302 7.5z"/><path d="M4.128 5.942a.466.466 0 00-.14.337c0 .116.047.244.14.337l3.07 3.07c.093.093.209.14.337.14a.466.466 0 00.337-.14l3.07-3.07a.477.477 0 00-.675-.674L7.535 8.674 4.802 5.942a.477.477 0 00-.674 0z"/></svg><svg viewBox="0 0 19 20" id="shopping-cart" xmlns="http://www.w3.org/2000/svg"><g clip-path="url(#mclip0_1_5217)"><path d="M5.667 15.63c-1.04 0-1.89.85-1.89 1.889 0 1.038.85 1.888 1.89 1.888 1.039 0 1.889-.85 1.889-1.888 0-1.04-.85-1.89-1.89-1.89zM0 .519v1.888h1.889l3.4 7.178-1.322 2.267c-.095.283-.19.661-.19.944 0 1.04.85 1.89 1.89 1.89H17v-1.89H6.044a.203.203 0 01-.188-.189v-.094l.85-1.606h6.988c.756 0 1.323-.377 1.606-.944l3.4-6.139c.189-.189.189-.283.189-.472 0-.567-.378-.945-.945-.945H3.967L3.117.52H0zm15.111 15.11c-1.039 0-1.889.85-1.889 1.89 0 1.038.85 1.888 1.89 1.888 1.038 0 1.888-.85 1.888-1.888 0-1.04-.85-1.89-1.889-1.89z"/></g><defs><clipPath id="mclip0_1_5217"><path fill="#fff" transform="translate(0 .519)" d="M0 0h18.889v18.889H0z"/></clipPath></defs></svg><svg fill="none" viewBox="0 0 75 75" id="tasks" xmlns="http://www.w3.org/2000/svg"><path d="M19.978 8.211h13.06a1.184 1.184 0 100-2.368h-13.06a1.184 1.184 0 100 2.368zM19.978 13.438h26.12a1.184 1.184 0 100-2.369h-26.12a1.184 1.184 0 100 2.369zM19.978 29.72h13.06a1.184 1.184 0 100-2.369h-13.06a1.184 1.184 0 100 2.368zM19.978 34.946H45.81a1.184 1.184 0 100-2.368H19.978a1.184 1.184 0 100 2.368zM19.978 51.228h13.06a1.184 1.184 0 100-2.369h-13.06a1.184 1.184 0 100 2.369zM45.625 54.086H19.978a1.184 1.184 0 100 2.368h25.647a1.184 1.184 0 100-2.368z"/><path d="M69.386 59.3l-6.88-2.759v-1.51a8.127 8.127 0 003.933-4.913 4.193 4.193 0 004.166-4.188 4.184 4.184 0 00-1.712-3.375v-3.144c0-5.853-4.762-10.615-10.614-10.615h-.786c-.878 0-1.73.11-2.546.311v-6.414c0-.655-.53-1.184-1.184-1.184h-3.517a1.184 1.184 0 100 2.368h2.333v6.13c-3.108 1.63-5.312 4.755-5.653 8.414H2.368V23.877h43.914a1.184 1.184 0 100-2.368H1.184c-.654 0-1.184.53-1.184 1.184v16.912c0 .654.53 1.184 1.184 1.184H46.88v1.754c-.196.142-.378.3-.546.474H1.184C.53 43.017 0 43.547 0 44.2v16.912c0 .654.53 1.184 1.184 1.184h41.19c-1 1.376-1.75 3.23-1.75 5.629v5.888c0 .654.53 1.186 1.185 1.186h4.474a1.184 1.184 0 100-2.369h-3.29v-4.705c0-4.925 3.876-6.338 4.034-6.393l.054-.02 6.483-2.539c.03.037.06.072.095.106l3.4 3.312c.222.215.518.336.827.336h.018c.315-.005.615-.136.834-.363l3.326-3.45 6.47 2.595.057.02c.165.058 4.04 1.472 4.04 6.396v4.706H50.072a1.184 1.184 0 100 2.368H73.816C74.47 75 75 74.458 75 73.804v-5.878c0-5.3-3.651-7.95-5.614-8.626zm-2.64-15.158a1.822 1.822 0 011.49 1.788c0 .891-.643 1.633-1.49 1.789v-3.577zm-17.5-4.731c.001-4.547 3.7-8.246 8.247-8.246h.786c4.547 0 8.246 3.7 8.246 8.246v1.934l-.005-.007a1.086 1.086 0 00-.11-.131l-.035-.034a1.311 1.311 0 00-.05-.045l-.035-.029a1.195 1.195 0 00-.055-.04c-.013-.01-.027-.018-.04-.027a1.134 1.134 0 00-.056-.033c-.016-.01-.033-.018-.05-.026l-.051-.025-.063-.025-.045-.016c-.024-.008-.049-.014-.073-.02l-.033-.01c-2.577-.586-3.383-3.918-3.39-3.947a1.184 1.184 0 00-2.115-.433c-3.116 4.308-9.974 4.35-10.068 4.35h-.005c-.04 0-.081.003-.12.007-.013.001-.025.004-.038.006-.027.003-.054.007-.08.012-.017.003-.034.008-.05.013l-.063.016-.057.02c-.017.007-.035.012-.052.02-.022.009-.042.02-.063.03-.013.006-.027.012-.04.02-.022.01-.041.024-.062.036l-.036.022-.055.041-.036.027-.048.043-.036.033-.042.046-.035.038-.035.047-.033.044-.018.03V39.41zm-.184 4.723v3.593a1.821 1.821 0 01-1.544-1.796c0-.91.671-1.663 1.544-1.797zm4.239 12.4l-7.058 2.764c-.393.135-.854.35-1.34.65a1.19 1.19 0 00-.199-.019H2.368V45.385h42.818a4.193 4.193 0 004.152 4.733l.03-.001a8.128 8.128 0 003.933 4.913v1.504zm6.837.827v.138l-2.28 2.366-2.189-2.133v-1.863c.482.09.978.14 1.486.14h1.498c.508 0 1.004-.05 1.485-.14v1.492zm-1.484-3.721h-1.5a5.73 5.73 0 01-5.724-5.725v-4.759c2.067-.178 6.371-.888 9.438-3.728.628 1.239 1.72 2.732 3.51 3.465v5.023a5.73 5.73 0 01-5.724 5.724zM12.098 6.9a1.184 1.184 0 100-2.368H6.125c-.654 0-1.184.53-1.184 1.184v7.849c0 .654.53 1.184 1.184 1.184h8.234c.654 0 1.184-.53 1.184-1.184v-2.118a1.184 1.184 0 10-2.368 0v.934H7.309V6.9h4.789z"/><path d="M16.674 4.854a1.184 1.184 0 00-1.674.05l-3.934 4.174L9.85 7.753a1.184 1.184 0 10-1.745 1.602l2.077 2.262c.223.242.536.381.865.384h.008c.326 0 .638-.135.861-.372l4.807-5.1a1.184 1.184 0 00-.05-1.675zM12.098 28.408a1.184 1.184 0 100-2.368H6.125c-.654 0-1.184.53-1.184 1.184v7.849c0 .654.53 1.184 1.184 1.184h8.234c.654 0 1.184-.53 1.184-1.184v-2.118a1.184 1.184 0 10-2.368 0v.934H7.309v-5.48h4.789z"/><path d="M16.674 26.362a1.184 1.184 0 00-1.674.05l-3.934 4.174L9.85 29.26a1.184 1.184 0 10-1.745 1.602l2.077 2.262c.223.243.536.382.865.384h.008c.326 0 .638-.135.862-.372l4.806-5.1a1.185 1.185 0 00-.05-1.675zM14.359 53.28c-.654 0-1.184.53-1.184 1.184v.933H7.309v-5.48h4.79a1.184 1.184 0 000-2.369H6.124c-.654 0-1.184.53-1.184 1.184v7.85c0 .654.53 1.184 1.184 1.184h8.234c.654 0 1.184-.53 1.184-1.185v-2.117c0-.654-.53-1.184-1.184-1.184z"/><path d="M15 47.92l-3.934 4.174L9.85 50.77a1.184 1.184 0 10-1.745 1.601l2.077 2.263c.223.242.536.381.865.383h.008c.326 0 .638-.134.862-.372l4.806-5.1A1.185 1.185 0 0015 47.921zM1.184 19.281h52.58c.653 0 1.183-.53 1.183-1.184V1.184C54.947.53 54.417 0 53.763 0h-3.517a1.184 1.184 0 100 2.368h2.333v14.544H2.369V2.368h43.913a1.184 1.184 0 100-2.368H1.184C.53 0 0 .53 0 1.184v16.913c0 .654.53 1.184 1.184 1.184z"/></svg><svg viewBox="0 0 75 75" id="tasks_02" xmlns="http://www.w3.org/2000/svg"><path d="M19.978 8.211h13.06a1.184 1.184 0 100-2.368h-13.06a1.184 1.184 0 100 2.368zM19.978 13.438h26.12a1.184 1.184 0 100-2.369h-26.12a1.184 1.184 0 100 2.369zM19.978 29.72h13.06a1.184 1.184 0 100-2.369h-13.06a1.184 1.184 0 100 2.368zM19.978 34.946H45.81a1.184 1.184 0 100-2.368H19.978a1.184 1.184 0 100 2.368zM19.978 51.228h13.06a1.184 1.184 0 100-2.369h-13.06a1.184 1.184 0 100 2.369zM45.625 54.086H19.978a1.184 1.184 0 100 2.368h25.647a1.184 1.184 0 100-2.368z"/><path d="M69.386 59.3l-6.88-2.759v-1.51a8.127 8.127 0 003.933-4.913 4.193 4.193 0 004.166-4.188 4.184 4.184 0 00-1.712-3.375v-3.144c0-5.853-4.762-10.615-10.614-10.615h-.786c-.878 0-1.73.11-2.546.311v-6.414c0-.655-.53-1.184-1.184-1.184h-3.517a1.184 1.184 0 100 2.368h2.333v6.13c-3.108 1.63-5.312 4.755-5.653 8.414H2.368V23.877h43.914a1.184 1.184 0 100-2.368H1.184c-.654 0-1.184.53-1.184 1.184v16.912c0 .654.53 1.184 1.184 1.184H46.88v1.754c-.196.142-.378.3-.546.474H1.184C.53 43.017 0 43.547 0 44.2v16.912c0 .654.53 1.184 1.184 1.184h41.19c-1 1.376-1.75 3.23-1.75 5.629v5.888c0 .654.53 1.186 1.185 1.186h4.474a1.184 1.184 0 100-2.369h-3.29v-4.705c0-4.925 3.876-6.338 4.034-6.393l.054-.02 6.483-2.539c.03.037.06.072.095.106l3.4 3.312c.222.215.518.336.827.336h.018c.315-.005.615-.136.834-.363l3.326-3.45 6.47 2.595.057.02c.165.058 4.04 1.472 4.04 6.396v4.706H50.072a1.184 1.184 0 100 2.368H73.816C74.47 75 75 74.458 75 73.804v-5.878c0-5.3-3.651-7.95-5.614-8.626zm-2.64-15.158a1.822 1.822 0 011.49 1.788c0 .891-.643 1.633-1.49 1.789v-3.577zm-17.5-4.731c.001-4.547 3.7-8.246 8.247-8.246h.786c4.547 0 8.246 3.7 8.246 8.246v1.934l-.005-.007a1.086 1.086 0 00-.11-.131l-.035-.034a1.311 1.311 0 00-.05-.045l-.035-.029a1.195 1.195 0 00-.055-.04c-.013-.01-.027-.018-.04-.027a1.134 1.134 0 00-.056-.033c-.016-.01-.033-.018-.05-.026l-.051-.025-.063-.025-.045-.016c-.024-.008-.049-.014-.073-.02l-.033-.01c-2.577-.586-3.383-3.918-3.39-3.947a1.184 1.184 0 00-2.115-.433c-3.116 4.308-9.974 4.35-10.068 4.35h-.005c-.04 0-.081.003-.121.007l-.037.006c-.027.003-.054.007-.08.012-.017.003-.034.008-.05.013l-.063.016-.057.02c-.017.007-.035.012-.052.02-.022.009-.042.02-.063.03-.013.006-.027.012-.04.02-.022.01-.041.024-.062.036l-.036.022-.055.041-.036.027-.048.043-.036.033-.042.046-.035.038-.035.047-.033.044-.018.03V39.41zm-.184 4.723v3.593a1.821 1.821 0 01-1.544-1.796c0-.91.671-1.663 1.544-1.797zm4.239 12.4l-7.058 2.764c-.393.135-.854.35-1.34.65a1.19 1.19 0 00-.199-.019H2.368V45.385h42.818a4.193 4.193 0 004.152 4.733l.03-.001a8.128 8.128 0 003.933 4.913v1.504zm6.837.827v.138l-2.28 2.366-2.189-2.133v-1.863c.482.09.978.14 1.486.14h1.498c.508 0 1.004-.05 1.485-.14v1.492zm-1.484-3.721h-1.5a5.73 5.73 0 01-5.724-5.725v-4.759c2.067-.178 6.371-.888 9.438-3.728.628 1.239 1.72 2.732 3.51 3.465v5.023a5.73 5.73 0 01-5.724 5.724zM12.098 6.9a1.184 1.184 0 100-2.368H6.125c-.654 0-1.184.53-1.184 1.184v7.849c0 .654.53 1.184 1.184 1.184h8.234c.654 0 1.184-.53 1.184-1.184v-2.118a1.184 1.184 0 10-2.368 0v.934H7.309V6.9h4.789z"/><path d="M16.674 4.854a1.184 1.184 0 00-1.674.05l-3.934 4.174L9.85 7.753a1.184 1.184 0 10-1.745 1.602l2.077 2.262c.223.242.536.381.865.384h.008c.326 0 .638-.135.861-.372l4.807-5.1a1.184 1.184 0 00-.05-1.675zM12.098 28.408a1.184 1.184 0 100-2.368H6.125c-.654 0-1.184.53-1.184 1.184v7.849c0 .654.53 1.184 1.184 1.184h8.234c.654 0 1.184-.53 1.184-1.184v-2.118a1.184 1.184 0 10-2.368 0v.934H7.309v-5.48h4.789z"/><path d="M16.674 26.362a1.184 1.184 0 00-1.674.05l-3.934 4.174L9.85 29.26a1.184 1.184 0 10-1.745 1.602l2.077 2.262c.223.243.536.382.865.384h.008c.326 0 .638-.135.862-.372l4.806-5.1a1.185 1.185 0 00-.05-1.675zM14.359 53.28c-.654 0-1.184.53-1.184 1.184v.933H7.309v-5.48h4.79a1.184 1.184 0 000-2.369H6.124c-.654 0-1.184.53-1.184 1.184v7.85c0 .654.53 1.184 1.184 1.184h8.234c.654 0 1.184-.53 1.184-1.185v-2.117c0-.654-.53-1.184-1.184-1.184z"/><path d="M15 47.92l-3.934 4.174L9.85 50.77a1.184 1.184 0 10-1.745 1.601l2.077 2.263c.223.242.536.381.865.383h.008c.326 0 .638-.134.862-.372l4.806-5.1A1.185 1.185 0 0015 47.921zM1.184 19.281h52.58c.653 0 1.183-.53 1.183-1.184V1.184C54.947.53 54.417 0 53.763 0h-3.517a1.184 1.184 0 100 2.368h2.333v14.544H2.369V2.368h43.913a1.184 1.184 0 100-2.368H1.184C.53 0 0 .53 0 1.184v16.913c0 .654.53 1.184 1.184 1.184z"/></svg></svg>