<svg width="7" height="7" viewBox="0 0 7 7" fill="none" xmlns="http://www.w3.org/2000/svg">
<path d="M0.0807692 3.76922C0.0269231 3.71537 0 3.6346 0 3.58076C0 3.52691 0.0269231 3.44614 0.0807692 3.39229L0.457692 3.01537C0.565385 2.90768 0.726923 2.90768 0.834615 3.01537L0.861539 3.04229L2.34231 4.63076C2.39615 4.6846 2.47692 4.6846 2.53077 4.63076L6.13846 0.888447H6.16538V0.888447C6.27308 0.780755 6.43462 0.780755 6.54231 0.888447L6.91923 1.26537C7.02692 1.37306 7.02692 1.5346 6.91923 1.64229L2.61154 6.11153C2.55769 6.16537 2.50385 6.19229 2.42308 6.19229C2.34231 6.19229 2.28846 6.16537 2.23462 6.11153L0.134615 3.84999L0.0807692 3.76922V3.76922Z" fill="#FEFDF9"/>
</svg>
