<svg width="247" height="74" viewBox="0 0 247 74" fill="none" xmlns="http://www.w3.org/2000/svg">
<g filter="url(#filter0_d_1_3778)">
<mask id="mask0_1_3778" style="mask-type:alpha" maskUnits="userSpaceOnUse" x="10" y="5" width="227" height="55">
<path d="M61.3064 51.1226V30.0919H66.4156V46.6964H74.5541V51.1219H61.3064V51.1226V51.1226Z" fill="#2C3C69"/>
<path d="M91.3895 43.9041C91.3895 44.1023 91.3895 44.3005 91.3895 44.4987C91.3895 44.6969 91.3795 44.8844 91.3601 45.0632H80.6375C80.677 45.479 80.8009 45.8553 81.0092 46.1922C81.2174 46.529 81.4846 46.8203 81.8107 47.0687C82.1375 47.3164 82.5037 47.5093 82.9102 47.6472C83.3153 47.7865 83.7365 47.8555 84.1724 47.8555C84.9445 47.8555 85.5987 47.7122 86.1331 47.4249C86.6681 47.1377 87.1033 46.7667 87.4402 46.3107L90.8264 48.4494C90.1334 49.4592 89.218 50.2366 88.079 50.781C86.9399 51.3248 85.6175 51.598 84.1135 51.598C83.0039 51.598 81.9547 51.4239 80.965 51.0783C79.9746 50.7315 79.1088 50.2273 78.3655 49.563C77.6236 48.9001 77.039 48.0831 76.6131 47.1129C76.1872 46.1426 75.975 45.0337 75.975 43.7856C75.975 42.5782 76.1826 41.4834 76.5984 40.5038C77.0142 39.5241 77.5787 38.6918 78.2918 38.0088C79.0043 37.3251 79.8454 36.7954 80.817 36.4191C81.7866 36.0434 82.8365 35.8546 83.9648 35.8546C85.0536 35.8546 86.054 36.0381 86.9647 36.4044C87.8754 36.7706 88.6575 37.3003 89.3117 37.9934C89.9653 38.6864 90.4742 39.5281 90.8411 40.5185C91.2067 41.5082 91.3895 42.6378 91.3895 43.9041V43.9041ZM86.9045 42.0325C86.9045 41.2604 86.6621 40.5968 86.1766 40.0424C85.6911 39.4886 84.9632 39.2107 83.9936 39.2107C83.5182 39.2107 83.083 39.2851 82.6865 39.4337C82.2901 39.5824 81.9446 39.7853 81.6466 40.0424C81.35 40.3002 81.1123 40.6022 80.9342 40.9491C80.756 41.2959 80.6569 41.6575 80.6375 42.0325H86.9045V42.0325Z" fill="#2C3C69"/>
<path d="M99.1712 39.9541V45.6197C99.1712 46.3154 99.3051 46.8364 99.573 47.1853C99.8395 47.5335 100.32 47.7062 101.013 47.7062C101.25 47.7062 101.503 47.6875 101.771 47.6466C102.038 47.6071 102.26 47.5482 102.439 47.4685L102.499 51.0329C102.162 51.1514 101.736 51.2552 101.222 51.3449C100.706 51.434 100.192 51.4782 99.6768 51.4782C98.6864 51.4782 97.8541 51.3536 97.1811 51.1059C96.5075 50.8581 95.9678 50.5005 95.5627 50.0331C95.1562 49.5671 94.8642 49.0113 94.6861 48.3658C94.5073 47.721 94.4189 47.0011 94.4189 46.207V39.9541H92.0425V36.3301H94.3888V32.439H99.1712V36.3301H102.647V39.9541H99.1712V39.9541Z" fill="#2C3C69"/>
<path d="M118.419 40.696C118.023 40.3203 117.558 40.0036 117.023 39.7458C116.489 39.4887 115.924 39.3594 115.33 39.3594C114.874 39.3594 114.454 39.4492 114.068 39.6266C113.682 39.8054 113.489 40.1128 113.489 40.5473C113.489 40.9632 113.701 41.2598 114.127 41.4386C114.553 41.6174 115.241 41.8149 116.191 42.0326C116.746 42.1517 117.306 42.3205 117.87 42.5381C118.435 42.7557 118.944 43.043 119.4 43.3992C119.855 43.7555 120.221 44.1914 120.499 44.7063C120.776 45.2213 120.915 45.8353 120.915 46.5478C120.915 47.4792 120.727 48.2653 120.35 48.9088C119.974 49.5523 119.484 50.072 118.88 50.4684C118.276 50.8648 117.598 51.1514 116.846 51.3295C116.093 51.5083 115.34 51.5967 114.588 51.5967C113.38 51.5967 112.197 51.4038 111.038 51.0175C109.88 50.6318 108.915 50.0619 108.143 49.3093L110.875 46.4279C111.31 46.9033 111.845 47.2998 112.479 47.6158C113.113 47.9332 113.786 48.0912 114.499 48.0912C114.896 48.0912 115.287 47.9968 115.673 47.8087C116.059 47.6212 116.252 47.289 116.252 46.8143C116.252 46.3583 116.015 46.0221 115.539 45.8038C115.064 45.5862 114.322 45.3585 113.311 45.1202C112.797 45.0016 112.282 44.8436 111.767 44.6454C111.251 44.4472 110.791 44.1807 110.386 43.8432C109.98 43.507 109.648 43.0912 109.391 42.5957C109.134 42.1015 109.005 41.5069 109.005 40.8139C109.005 39.9226 109.193 39.1653 109.57 38.5412C109.946 37.9171 110.431 37.4082 111.025 37.0118C111.619 36.6154 112.278 36.3241 113 36.1352C113.723 35.9464 114.44 35.8527 115.154 35.8527C116.262 35.8527 117.347 36.0268 118.406 36.3723C119.465 36.7191 120.362 37.2388 121.094 37.9318L118.419 40.696V40.696Z" fill="#2C3C69"/>
<path d="M130.241 51.1226V30.0919H144.38V34.3694H135.142V38.3496H143.875V42.4189H135.142V46.7855H144.915V51.1226H130.241V51.1226Z" fill="#2C3C69"/>
<path d="M157.767 51.1225V43.0429C157.767 42.6271 157.732 42.2313 157.664 41.855C157.594 41.4787 157.48 41.1472 157.321 40.86C157.163 40.5734 156.94 40.345 156.653 40.1763C156.366 40.0089 156.004 39.9238 155.569 39.9238C155.134 39.9238 154.752 40.0089 154.425 40.1763C154.099 40.345 153.826 40.5781 153.608 40.8747C153.391 41.1713 153.227 41.5135 153.119 41.8992C153.01 42.2856 152.955 42.6867 152.955 43.1025V51.1225H148.055V36.33H152.777V38.3797H152.837C153.016 38.063 153.247 37.7516 153.535 37.4449C153.822 37.1376 154.159 36.8751 154.545 36.6575C154.932 36.4398 155.352 36.261 155.808 36.1224C156.263 35.9845 156.748 35.9142 157.263 35.9142C158.253 35.9142 159.095 36.093 159.788 36.4492C160.482 36.8054 161.04 37.2661 161.467 37.83C161.893 38.3944 162.2 39.0433 162.388 39.7752C162.575 40.5084 162.67 41.241 162.67 41.9735V51.1218H157.767V51.1225V51.1225Z" fill="#2C3C69"/>
<path d="M175.203 41.1118C174.925 40.7555 174.548 40.4689 174.074 40.2506C173.598 40.033 173.112 39.9239 172.618 39.9239C172.102 39.9239 171.638 40.0277 171.222 40.2359C170.806 40.4442 170.45 40.7221 170.152 41.0676C169.856 41.4144 169.622 41.8155 169.454 42.2709C169.286 42.7269 169.202 43.211 169.202 43.7266C169.202 44.2416 169.281 44.7264 169.439 45.1817C169.597 45.6377 169.83 46.0388 170.137 46.385C170.444 46.7319 170.81 47.0044 171.237 47.2019C171.662 47.4001 172.143 47.4986 172.677 47.4986C173.171 47.4986 173.662 47.4048 174.147 47.2167C174.632 47.0285 175.023 46.756 175.32 46.3997L178.023 49.6969C177.409 50.2909 176.616 50.7563 175.647 51.0931C174.676 51.4292 173.647 51.598 172.558 51.598C171.389 51.598 170.298 51.4192 169.285 51.0629C168.273 50.7067 167.393 50.1864 166.646 49.5034C165.899 48.8204 165.312 47.9941 164.883 47.0238C164.455 46.0536 164.241 44.9547 164.241 43.7266C164.241 42.5186 164.455 41.4292 164.883 40.4589C165.312 39.4893 165.899 38.6617 166.646 37.9786C167.393 37.295 168.274 36.7706 169.285 36.4044C170.298 36.0381 171.379 35.8546 172.528 35.8546C173.063 35.8546 173.592 35.9042 174.117 36.0039C174.642 36.1024 175.146 36.237 175.632 36.405C176.117 36.5731 176.563 36.7814 176.968 37.0291C177.374 37.2769 177.727 37.5487 178.023 37.8461L175.203 41.1118V41.1118Z" fill="#2C3C69"/>
<path d="M189.478 40.3397C189.26 40.2801 189.047 40.2413 188.839 40.2212C188.632 40.2011 188.428 40.1911 188.231 40.1911C187.577 40.1911 187.028 40.3103 186.582 40.5467C186.137 40.7837 185.781 41.0696 185.513 41.4058C185.246 41.7412 185.052 42.1069 184.934 42.5019C184.815 42.897 184.755 43.2419 184.755 43.5385V51.1219H179.884V36.3475H184.577V38.4862H184.637C185.013 37.7282 185.547 37.1102 186.241 36.6314C186.934 36.1526 187.736 35.9136 188.647 35.9136C188.845 35.9136 189.038 35.9243 189.227 35.9437C189.414 35.9631 189.568 35.9933 189.687 36.0328L189.478 40.3397V40.3397Z" fill="#2C3C69"/>
<path d="M200.922 53.3503C200.625 54.1224 200.293 54.8108 199.927 55.4148C199.561 56.0181 199.126 56.533 198.621 56.9596C198.116 57.3854 197.521 57.7062 196.838 57.9245C196.155 58.1421 195.348 58.2513 194.417 58.2513C193.961 58.2513 193.491 58.2211 193.007 58.1615C192.521 58.1019 192.101 58.0229 191.744 57.9245L192.279 53.8258C192.516 53.9041 192.779 53.9691 193.067 54.0186C193.353 54.0675 193.616 54.0923 193.854 54.0923C194.606 54.0923 195.151 53.9188 195.487 53.5726C195.824 53.2258 196.111 52.7363 196.349 52.1028L196.824 50.8855L190.646 36.3307H196.051L199.348 45.8359H199.438L202.379 36.3307H207.547L200.922 53.3503V53.3503Z" fill="#2C3C69"/>
<path d="M225.279 43.667C225.279 44.6969 225.12 45.6872 224.803 46.6374C224.486 47.5883 224.026 48.4246 223.423 49.1471C222.819 49.8703 222.081 50.4496 221.209 50.8855C220.338 51.3201 219.348 51.539 218.238 51.539C217.328 51.539 216.467 51.3562 215.654 50.9899C214.842 50.6237 214.209 50.1234 213.753 49.49H213.694V58.2526H208.823V36.33H213.457V38.142H213.546C214.002 37.548 214.63 37.0284 215.432 36.5825C216.234 36.1372 217.179 35.9142 218.268 35.9142C219.338 35.9142 220.307 36.1224 221.179 36.5383C222.05 36.9541 222.788 37.5186 223.392 38.2311C223.997 38.9435 224.462 39.7712 224.789 40.7113C225.115 41.6521 225.279 42.6378 225.279 43.667V43.667ZM220.556 43.667C220.556 43.1916 220.482 42.7269 220.334 42.2709C220.185 41.8155 219.967 41.4144 219.679 41.0676C219.392 40.7214 219.031 40.4395 218.595 40.2212C218.16 40.0029 217.655 39.8944 217.081 39.8944C216.526 39.8944 216.031 40.0035 215.595 40.2212C215.159 40.4388 214.788 40.726 214.481 41.0823C214.174 41.4385 213.937 41.845 213.769 42.2996C213.6 42.7557 213.516 43.2204 213.516 43.6958C213.516 44.1712 213.6 44.6366 213.769 45.0919C213.937 45.548 214.174 45.9531 214.481 46.3093C214.788 46.6655 215.159 46.9535 215.595 47.1711C216.03 47.3887 216.526 47.4972 217.081 47.4972C217.654 47.4972 218.159 47.3887 218.595 47.1711C219.031 46.9535 219.392 46.6655 219.679 46.3093C219.967 45.9531 220.185 45.5419 220.334 45.0765C220.482 44.6125 220.556 44.1424 220.556 43.667V43.667Z" fill="#2C3C69"/>
<path d="M233.061 39.9541V45.6197C233.061 46.3154 233.195 46.8364 233.463 47.1853C233.729 47.5335 234.209 47.7062 234.903 47.7062C235.14 47.7062 235.393 47.6875 235.66 47.6466C235.928 47.6071 236.15 47.5482 236.329 47.4685L236.388 51.0329C236.051 51.1514 235.626 51.2552 235.111 51.3449C234.596 51.434 234.081 51.4782 233.567 51.4782C232.576 51.4782 231.744 51.3536 231.071 51.1059C230.397 50.8581 229.858 50.5005 229.452 50.0331C229.046 49.5671 228.754 49.0113 228.576 48.3658C228.397 47.721 228.309 47.0011 228.309 46.207V39.9541H225.932V36.3301H228.279V32.439H233.061V36.3301H236.536V39.9541H233.061V39.9541Z" fill="#2C3C69"/>
<path d="M107.101 29.6888C105.639 29.6888 104.495 30.7422 104.495 32.0874C104.495 33.5043 105.458 34.4558 106.893 34.4558C107.016 34.4558 107.132 34.4445 107.241 34.4224C107.011 35.471 106.001 36.2236 105.046 36.3743L104.852 36.4051V38.6664L105.103 38.6423C106.262 38.5318 107.406 38.0055 108.244 37.1979C109.337 36.1446 109.915 34.6239 109.915 32.7999C109.915 30.9973 108.731 29.6888 107.101 29.6888V29.6888Z" fill="#2C3C69"/>
<path d="M41.1296 30.1562H35.7459V27.3921C35.7459 25.1843 33.9493 23.3884 31.7416 23.3884C29.5339 23.3884 27.738 25.185 27.738 27.3921V30.1562H22.3542V27.3921C22.3542 22.2159 26.5655 18.004 31.7423 18.004C36.9191 18.004 41.1303 22.2152 41.1303 27.3921V30.1562H41.1296V30.1562Z" fill="#F9A11D"/>
<path d="M43.3011 30.1562H20.1826C19.1956 30.1562 18.3881 30.9638 18.3881 31.9508V49.0528C18.3881 50.0398 19.1956 50.8474 20.1826 50.8474H43.3011C44.2882 50.8474 45.0957 50.0398 45.0957 49.0528V31.9508C45.0957 30.9638 44.2882 30.1562 43.3011 30.1562ZM32.9134 41.3851V43.7026C32.9134 44.3494 32.3884 44.8737 31.7422 44.8737C31.096 44.8737 30.5711 44.3488 30.5711 43.7026V41.3857C29.8506 40.9766 29.3637 40.2045 29.3637 39.3166C29.3637 38.0028 30.4291 36.9381 31.7422 36.9381C33.056 36.9381 34.1207 38.0035 34.1207 39.3166C34.1207 40.2038 33.6339 40.9759 32.9134 41.3851V41.3851Z" fill="#2C3C69"/>
<path d="M17.839 27.6063H12.2604C11.3558 27.6063 10.6226 26.8731 10.6226 25.9684C10.6226 25.0638 11.3558 24.3306 12.2604 24.3306H17.839C18.7437 24.3306 19.4769 25.0638 19.4769 25.9684C19.4769 26.8731 18.743 27.6063 17.839 27.6063Z" fill="#F9A11D"/>
<path d="M21.7683 18.8309C21.4027 18.8309 21.0337 18.7091 20.7291 18.4579L16.3163 14.8293C15.6179 14.2548 15.5168 13.2229 16.092 12.5238C16.6665 11.8254 17.6984 11.7243 18.3975 12.2988L22.8102 15.9275C23.5086 16.502 23.6098 17.5339 23.0346 18.233C22.7111 18.6274 22.2417 18.8309 21.7683 18.8309V18.8309Z" fill="#F9A11D"/>
<path d="M31.7416 14.974C30.837 14.974 30.1038 14.2407 30.1038 13.3361V7.71332C30.1038 6.80867 30.837 6.07544 31.7416 6.07544C32.6463 6.07544 33.3795 6.80867 33.3795 7.71332V13.3361C33.3795 14.2407 32.6463 14.974 31.7416 14.974Z" fill="#F9A11D"/>
<path d="M41.7149 18.8309C41.2414 18.8309 40.7727 18.6274 40.4486 18.233C39.8741 17.5345 39.9745 16.502 40.6729 15.9275L45.0857 12.2988C45.7848 11.7243 46.8167 11.8254 47.3912 12.5238C47.9657 13.2222 47.8653 14.2548 47.1669 14.8293L42.7541 18.4579C42.4494 18.7091 42.0811 18.8309 41.7149 18.8309V18.8309Z" fill="#F9A11D"/>
<path d="M51.2235 27.6063H45.592C44.6873 27.6063 43.9541 26.8731 43.9541 25.9684C43.9541 25.0638 44.6873 24.3306 45.592 24.3306H51.2235C52.1281 24.3306 52.8613 25.0638 52.8613 25.9684C52.8613 26.8731 52.1281 27.6063 51.2235 27.6063V27.6063Z" fill="#F9A11D"/>
</mask>
<g mask="url(#mask0_1_3778)">
<rect x="10" y="3" width="227" height="56" fill="#4F79EB"/>
</g>
</g>
<defs>
<filter id="filter0_d_1_3778" x="0" y="0" width="247" height="74" filterUnits="userSpaceOnUse" color-interpolation-filters="sRGB">
<feFlood flood-opacity="0" result="BackgroundImageFix"/>
<feColorMatrix in="SourceAlpha" type="matrix" values="0 0 0 0 0 0 0 0 0 0 0 0 0 0 0 0 0 0 127 0" result="hardAlpha"/>
<feOffset dy="5"/>
<feGaussianBlur stdDeviation="5"/>
<feColorMatrix type="matrix" values="0 0 0 0 0.214468 0 0 0 0 0.373422 0 0 0 0 0.796094 0 0 0 0.3 0"/>
<feBlend mode="normal" in2="BackgroundImageFix" result="effect1_dropShadow_1_3778"/>
<feBlend mode="normal" in="SourceGraphic" in2="effect1_dropShadow_1_3778" result="shape"/>
</filter>
</defs>
</svg>
