<svg width="88" height="88" viewBox="0 0 88 88" xmlns="http://www.w3.org/2000/svg">
<g opacity="0.15">
<path d="M48.1088 51.1765V46.3498C48.1088 44.4467 46.5605 42.8984 44.6574 42.8984C42.7543 42.8984 41.206 44.4467 41.206 46.3498V50.7077C41.206 55.9593 39.2713 61.0013 35.7581 64.9047L30.9142 70.2869C30.5072 70.7391 30.544 71.4355 30.9962 71.8426C31.4482 72.2496 32.1447 72.2129 32.5518 71.7607L37.3957 66.3786C41.2734 62.0697 43.409 56.5045 43.409 50.7077V46.3498C43.409 45.6615 43.969 45.1015 44.6574 45.1015C45.3458 45.1015 45.9058 45.6615 45.9058 46.3498V51.1765C45.9058 57.6392 43.5117 63.8317 39.1644 68.6137L34.4427 73.8076C34.0336 74.2576 34.0667 74.9545 34.5169 75.3637C34.7279 75.5556 34.993 75.6501 35.2574 75.6501C35.557 75.6501 35.8555 75.5286 36.0728 75.2895L40.7943 70.0956C45.5112 64.9072 48.1088 58.1883 48.1088 51.1765Z" />
<path d="M52.8085 46.3499C52.8085 41.8553 49.1519 38.1987 44.6573 38.1987C40.1627 38.1987 36.5061 41.8553 36.5061 46.3499V50.7078C36.5061 54.7965 34.9998 58.7218 32.2647 61.7608L28.8211 65.5872C28.4141 66.0394 28.4508 66.7358 28.903 67.1429C29.3552 67.5499 30.0515 67.5129 30.4587 67.061L33.9023 63.2346C37.0021 59.7904 38.7093 55.3416 38.7093 50.7078V46.3499C38.7093 43.0701 41.3776 40.4018 44.6574 40.4018C47.9373 40.4018 50.6056 43.0701 50.6056 46.3499V51.1766C50.6056 58.8107 47.7775 66.1262 42.642 71.7752L38.6582 76.1576C38.2488 76.6076 38.282 77.3045 38.7322 77.7136C38.9432 77.9056 39.2083 78 39.4727 78C39.7723 78 40.0708 77.8786 40.2881 77.6395L44.2721 73.2571C49.7768 67.2017 52.8085 59.3601 52.8085 51.1766V46.3499Z" />
<path d="M57.5083 46.3499C57.5083 39.2638 51.7434 33.4989 44.6573 33.4989C37.5712 33.4989 31.8063 39.2638 31.8063 46.3499V50.7077C31.8063 53.6334 30.7284 56.4422 28.7713 58.6168L25.6706 62.062C25.2636 62.5142 25.3003 63.2106 25.7526 63.6178C26.2046 64.0247 26.9012 63.9877 27.3082 63.5358L30.4089 60.0906C32.7307 57.5108 34.0093 54.1785 34.0093 50.7077V46.3499C34.0093 40.4785 38.7859 35.7019 44.6573 35.7019C50.5286 35.7019 55.3052 40.4785 55.3052 46.3499V51.1766C55.3052 59.9825 52.043 68.4206 46.1194 74.9365L45.0168 76.1493C44.6076 76.5994 44.6408 77.2962 45.091 77.7054C45.302 77.8972 45.5673 77.9918 45.8315 77.9918C46.1311 77.9918 46.4295 77.8703 46.6469 77.6312L47.7493 76.4184C54.0423 69.496 57.5081 60.5318 57.5081 51.1766V46.3499H57.5083Z" />
<path d="M27.1066 46.3499C27.1066 46.9584 27.5998 47.4514 28.2081 47.4514C28.8164 47.4514 29.3096 46.9584 29.3096 46.3499C29.3096 42.6407 30.6562 39.0577 33.1016 36.2608C35.5242 33.4898 38.8491 31.6778 42.4638 31.1584C43.066 31.0719 43.484 30.5135 43.3975 29.9115C43.311 29.3094 42.7521 28.892 42.1506 28.9779C38.0148 29.5721 34.2121 31.6435 31.443 34.8109C28.6466 38.0093 27.1066 42.1073 27.1066 46.3499Z" />
<path d="M29.3095 50.7077C29.3095 50.0992 28.8164 49.6062 28.208 49.6062C27.5997 49.6062 27.1065 50.0992 27.1065 50.7077C27.1065 52.4704 26.4572 54.1625 25.2782 55.4726L22.5201 58.5373C22.1131 58.9893 22.1499 59.6858 22.6021 60.0929C22.8127 60.2824 23.076 60.3756 23.3386 60.3756C23.64 60.3756 23.9403 60.2525 24.1577 60.0109L26.9157 56.9464C28.4593 55.2311 29.3095 53.0156 29.3095 50.7077Z" />
<path d="M60.046 60.5408C59.4572 60.3875 58.8556 60.7392 58.7014 61.3276C58.2947 62.8813 57.7889 64.4259 57.1975 65.9184C56.9734 66.484 57.2502 67.1242 57.8158 67.3481C57.949 67.4009 58.0862 67.4258 58.2213 67.4258C58.6597 67.4258 59.0743 67.1622 59.2457 66.7298C59.8697 65.1547 60.4036 63.5249 60.8328 61.8852C60.9867 61.2969 60.6343 60.6949 60.046 60.5408Z" />
<path d="M56.3795 33.298C55.927 32.891 55.2306 32.9283 54.8239 33.3807C54.4172 33.833 54.4542 34.5295 54.9066 34.9361C58.1466 37.8488 60.0048 42.0089 60.0048 46.3499V51.1765C60.0048 53.0084 59.8785 54.8544 59.6293 56.6634C59.5463 57.2661 59.9675 57.8219 60.5701 57.9049C60.6211 57.9119 60.6717 57.9153 60.7218 57.9153C61.2635 57.9153 61.7357 57.5155 61.8116 56.9639C62.0745 55.0556 62.2078 53.1084 62.2078 51.1764V46.3499C62.208 41.385 60.0835 36.6278 56.3795 33.298Z" />
<path d="M51.23 32.482C51.3828 32.5549 51.544 32.5892 51.7027 32.5892C52.1144 32.5892 52.5093 32.3573 52.698 31.9609C52.9596 31.4118 52.7262 30.7544 52.1771 30.493C50.59 29.7374 48.9033 29.2276 47.1636 28.9778C46.5606 28.8918 46.0032 29.3094 45.9167 29.9114C45.8302 30.5134 46.2482 31.0718 46.8503 31.1583C48.3701 31.3767 49.8435 31.822 51.23 32.482Z" />
<path d="M44.6571 24.0994C44.245 24.0994 43.8282 24.1108 43.418 24.1334C42.8106 24.1669 42.3453 24.6865 42.3788 25.2938C42.4124 25.9013 42.9314 26.3691 43.5393 26.3329C43.9093 26.3125 44.2853 26.3022 44.657 26.3022C55.7112 26.3022 64.7045 35.2954 64.7045 46.3498V51.1764C64.7045 51.7849 65.1977 52.2779 65.806 52.2779C66.4144 52.2779 66.9075 51.7849 66.9075 51.1764V46.3499C66.9077 34.081 56.9261 24.0994 44.6571 24.0994Z" />
<path d="M32.6135 30.0758C32.8304 30.0758 33.0497 30.0118 33.2413 29.8786C35.074 28.6042 37.0867 27.6528 39.2237 27.0502C39.8093 26.8851 40.1502 26.2765 39.9851 25.6911C39.82 25.1056 39.2113 24.7652 38.626 24.9297C36.2526 25.5988 34.0178 26.6553 31.9837 28.0696C31.4842 28.4169 31.3608 29.1034 31.7082 29.6028C31.9222 29.9109 32.265 30.0758 32.6135 30.0758Z" />
<path d="M24.6099 50.7077V46.3498C24.6099 41.2256 26.5504 36.3455 30.0741 32.6081C30.4914 32.1655 30.4709 31.4684 30.0283 31.051C29.5856 30.6336 28.8884 30.6543 28.4712 31.0968C24.5605 35.2445 22.4068 40.6616 22.4068 46.3498V50.7077C22.4068 51.3074 22.186 51.883 21.785 52.3284L20.4268 53.8375C20.0198 54.2897 20.0565 54.9861 20.5087 55.3931C20.7192 55.5827 20.9827 55.676 21.2453 55.676C21.5466 55.676 21.8468 55.553 22.0643 55.3114L23.4226 53.8024C24.1882 52.9514 24.6099 51.8524 24.6099 50.7077Z" />
<path d="M70.2088 37.7734C69.0007 34.1831 67.0807 30.9395 64.5021 28.1327C64.0904 27.6847 63.3937 27.6551 62.9457 28.0667C62.4978 28.4784 62.4683 29.1752 62.8798 29.6233C65.2483 32.2014 67.0118 35.1799 68.1209 38.4759C68.2757 38.936 68.7049 39.2264 69.1647 39.2264C69.2812 39.2264 69.3997 39.2077 69.5162 39.1685C70.0926 38.9745 70.4028 38.3499 70.2088 37.7734Z" />
<path d="M53.3623 20.8421C52.787 20.6452 52.1605 20.952 51.9636 21.5277C51.7666 22.1033 52.0736 22.7295 52.6491 22.9263C55.078 23.7574 57.3585 24.9615 59.4271 26.5053C59.6249 26.6529 59.856 26.724 60.0851 26.724C60.4208 26.724 60.7524 26.5711 60.9688 26.2812C61.3327 25.7938 61.2323 25.1035 60.7448 24.7397C58.4923 23.0589 56.0085 21.7474 53.3623 20.8421Z" />
<path d="M27.5421 28.4919C32.1756 24.0492 38.2539 21.6026 44.6572 21.6026C45.8463 21.6026 47.0419 21.6882 48.2109 21.8568C48.8135 21.9446 49.3716 21.526 49.4585 20.9239C49.5455 20.3217 49.1279 19.7633 48.5257 19.6764C47.2527 19.4928 45.9511 19.3995 44.6572 19.3995C37.6829 19.3995 31.0631 22.0639 26.0175 26.9017C20.9875 31.7246 18.0459 38.1966 17.7345 45.1257C17.7072 45.7335 18.1778 46.2484 18.7854 46.2755C18.8023 46.2764 18.819 46.2767 18.8357 46.2767C19.4213 46.2767 19.9088 45.8156 19.9354 45.2247C20.221 38.8635 22.9225 32.9211 27.5421 28.4919Z" />
<path d="M44.6573 14.6998C42.194 14.6998 39.7394 14.9853 37.3618 15.5484C36.7697 15.6885 36.4036 16.2822 36.5437 16.8741C36.684 17.4659 37.2776 17.8322 37.8695 17.692C40.081 17.1685 42.3647 16.9029 44.6573 16.9029C52.7345 16.9029 60.2741 20.1209 65.8871 25.9639C66.1034 26.189 66.3922 26.3024 66.6816 26.3024C66.9561 26.3024 67.2311 26.2005 67.4446 25.9953C67.8833 25.5738 67.8974 24.8765 67.4759 24.4379C64.5513 21.3935 61.1159 18.9985 57.2653 17.32C53.277 15.5813 49.035 14.6998 44.6573 14.6998Z" />
<path d="M19.9145 28.4178C20.116 28.5756 20.3553 28.6521 20.5929 28.6521C20.92 28.6521 21.2437 28.5071 21.4609 28.2297C24.6002 24.2199 28.7331 21.0747 33.4126 19.1339C33.9745 18.9008 34.2412 18.2563 34.0081 17.6944C33.7751 17.1325 33.1303 16.8655 32.5687 17.0989C27.5398 19.1845 23.0989 22.5638 19.7264 26.8713C19.3513 27.3505 19.4356 28.0429 19.9145 28.4178Z" />
<path d="M29.384 15.6875C29.5446 15.6875 29.7078 15.6522 29.862 15.5776C34.4998 13.3383 39.4776 12.203 44.6572 12.203C47.3564 12.203 50.0447 12.5206 52.647 13.1468C53.2382 13.2887 53.8333 12.925 53.9756 12.3336C54.1179 11.7422 53.7538 11.1472 53.1622 11.0049C50.3914 10.3381 47.5298 10 44.6572 10C39.1432 10 33.8432 11.209 28.9043 13.5937C28.3565 13.8582 28.1268 14.5168 28.3913 15.0646C28.5812 15.4581 28.9745 15.6875 29.384 15.6875Z" />
<path d="M57.251 14.6091C58.3866 15.0613 59.5105 15.5812 60.5916 16.1542C60.756 16.2414 60.9325 16.2827 61.1064 16.2827C61.5012 16.2827 61.8829 16.0699 62.0806 15.6967C62.3654 15.1591 62.1606 14.4925 61.6231 14.2076C60.4721 13.5976 59.2753 13.0441 58.0659 12.5625C57.5007 12.3373 56.8602 12.6132 56.635 13.1782C56.41 13.7433 56.6858 14.3841 57.251 14.6091Z" />
</g>
<path d="M15.4688 0H1.71875C0.769656 0 0 0.769484 0 1.71875V15.4688C0 16.418 0.769656 17.1875 1.71875 17.1875C2.66784 17.1875 3.4375 16.418 3.4375 15.4688V3.4375H15.4688C16.4178 3.4375 17.1875 2.66802 17.1875 1.71875C17.1875 0.769484 16.4178 0 15.4688 0Z" />
<path d="M86.2812 0H72.5312C71.5822 0 70.8125 0.769484 70.8125 1.71875C70.8125 2.66802 71.5822 3.4375 72.5312 3.4375H84.5625V15.4688C84.5625 16.418 85.3322 17.1875 86.2812 17.1875C87.2303 17.1875 88 16.418 88 15.4688V1.71875C88 0.769484 87.2303 0 86.2812 0Z" />
<path d="M15.4688 84.5625H3.4375V72.5312C3.4375 71.582 2.66784 70.8125 1.71875 70.8125C0.769656 70.8125 0 71.582 0 72.5312V86.2812C0 87.2303 0.769656 88 1.71875 88H15.4688C16.4178 88 17.1875 87.2303 17.1875 86.2812C17.1875 85.3322 16.4178 84.5625 15.4688 84.5625Z" />
<path d="M86.2812 70.8125C85.3322 70.8125 84.5625 71.582 84.5625 72.5312V84.5625H72.5312C71.5822 84.5625 70.8125 85.3322 70.8125 86.2812C70.8125 87.2303 71.5822 88 72.5312 88H86.2812C87.2303 88 88 87.2303 88 86.2812V72.5312C88 71.582 87.2303 70.8125 86.2812 70.8125Z" />
</svg>
