<svg viewBox="0 0 10 12" xmlns="http://www.w3.org/2000/svg">
<path d="M9.49859 3.03994C9.4965 2.9697 9.46852 2.90116 9.41679 2.84944L6.64964 0.0822891C6.64952 0.0821719 6.64941 0.082125 6.64931 0.0820078C6.59848 0.0313359 6.52838 0 6.45098 0H1.09249C0.766312 0 0.500977 0.265313 0.500977 0.591492V11.4085C0.500977 11.7346 0.766289 12 1.09247 12H8.90756C9.23372 12 9.49905 11.7347 9.49905 11.4085V3.04809C9.4991 3.04533 9.49877 3.04266 9.49859 3.03994ZM6.73195 0.95932L8.5398 2.76717H6.85052C6.78513 2.76717 6.73195 2.71399 6.73195 2.6486V0.95932ZM8.93716 11.4085C8.93714 11.4248 8.92387 11.4381 8.90759 11.4381H1.09249C1.0762 11.4381 1.06294 11.4248 1.06294 11.4085V0.591492C1.06294 0.575203 1.0762 0.561938 1.09249 0.561938H6.17002V2.6486C6.17002 3.02381 6.47529 3.32911 6.85052 3.32911H8.93719V11.4085H8.93716Z" />
</svg>
