<svg width="25" height="25" fill="none" xmlns="http://www.w3.org/2000/svg"><path d="M21.354 9.375h-1.562V7.292C19.792 3.27 16.52 0 12.5 0 8.48 0 5.208 3.271 5.208 7.292v2.083H3.646a.52.52 0 0 0-.521.52v13.022c0 1.149.934 2.083 2.083 2.083h14.584a2.085 2.085 0 0 0 2.083-2.083V9.896a.52.52 0 0 0-.52-.521Zm-7.294 10.88a.522.522 0 0 1-.518.578h-2.084a.52.52 0 0 1-.517-.578l.328-2.955a2.06 2.06 0 0 1-.852-1.675c0-1.149.934-2.083 2.083-2.083 1.15 0 2.083.934 2.083 2.083a2.06 2.06 0 0 1-.852 1.675l.329 2.955Zm2.607-10.88H8.333V7.292A4.171 4.171 0 0 1 12.5 3.125a4.171 4.171 0 0 1 4.167 4.167v2.083Z" fill="#31BE00"/></svg>