<svg width="247" height="74" fill="none" xmlns="http://www.w3.org/2000/svg"><g filter="url(#a)"><mask id="b" style="mask-type:alpha" maskUnits="userSpaceOnUse" x="10" y="5" width="227" height="55"><path d="M61.306 51.123V30.092h5.11v16.604h8.138v4.426H61.306ZM91.39 43.904v.595c0 .198-.01.385-.03.564H80.638c.039.416.163.792.371 1.13.208.336.476.627.802.876.326.247.693.44 1.1.578.404.14.826.209 1.261.209.773 0 1.427-.144 1.961-.431.535-.287.97-.658 1.307-1.114l3.386 2.138a6.847 6.847 0 0 1-2.747 2.332c-1.14.544-2.461.817-3.965.817a9.481 9.481 0 0 1-3.149-.52 7.642 7.642 0 0 1-2.6-1.515 7.02 7.02 0 0 1-1.752-2.45c-.426-.97-.638-2.08-.638-3.327 0-1.208.208-2.303.623-3.282.416-.98.98-1.812 1.694-2.495a7.527 7.527 0 0 1 2.525-1.59c.97-.376 2.02-.564 3.148-.564 1.089 0 2.089.183 3 .55.91.366 1.692.895 2.347 1.588.653.693 1.162 1.535 1.53 2.526.365.99.547 2.119.547 3.385Zm-4.486-1.872c0-.772-.242-1.435-.727-1.99-.486-.553-1.214-.831-2.183-.831-.476 0-.911.074-1.308.223a3.404 3.404 0 0 0-1.04.608c-.296.258-.534.56-.712.907a2.649 2.649 0 0 0-.296 1.084h6.266ZM99.171 39.954v5.666c0 .695.134 1.216.402 1.565.267.348.747.521 1.44.521.237 0 .49-.019.758-.06.267-.039.489-.098.668-.178l.06 3.565a8.17 8.17 0 0 1-1.277.312c-.516.089-1.03.133-1.545.133-.99 0-1.823-.124-2.496-.372-.674-.248-1.213-.605-1.618-1.073a4.192 4.192 0 0 1-.877-1.667c-.179-.645-.267-1.365-.267-2.159v-6.253h-2.376V36.33h2.346V32.44h4.782v3.891h3.476v3.624h-3.476ZM118.419 40.696a5.441 5.441 0 0 0-1.396-.95 3.857 3.857 0 0 0-1.693-.387c-.456 0-.876.09-1.262.268-.386.178-.579.486-.579.92 0 .416.212.713.638.892.426.178 1.114.376 2.064.594.555.119 1.115.288 1.679.505a5.929 5.929 0 0 1 1.53.861c.455.356.821.792 1.099 1.307.277.515.416 1.13.416 1.842 0 .931-.188 1.717-.565 2.36a4.628 4.628 0 0 1-1.47 1.56 6.332 6.332 0 0 1-2.034.861 9.745 9.745 0 0 1-2.258.268c-1.208 0-2.391-.193-3.55-.58-1.158-.385-2.123-.955-2.895-1.708l2.732-2.881c.435.475.97.872 1.604 1.188a4.45 4.45 0 0 0 2.02.475c.397 0 .788-.094 1.174-.282.386-.188.579-.52.579-.995 0-.456-.237-.792-.713-1.01-.475-.218-1.217-.446-2.228-.684a11.49 11.49 0 0 1-1.544-.475 4.858 4.858 0 0 1-1.381-.802 3.972 3.972 0 0 1-.995-1.247c-.257-.494-.386-1.09-.386-1.782 0-.891.188-1.649.565-2.273a4.776 4.776 0 0 1 1.455-1.53 6.487 6.487 0 0 1 1.975-.876 8.49 8.49 0 0 1 2.154-.282c1.108 0 2.193.174 3.252.52 1.059.346 1.956.866 2.688 1.559l-2.675 2.764ZM130.241 51.123V30.092h14.139v4.277h-9.238v3.98h8.733v4.07h-8.733v4.367h9.773v4.337h-14.674ZM157.767 51.123v-8.08a6.67 6.67 0 0 0-.103-1.188 3.279 3.279 0 0 0-.343-.995 1.776 1.776 0 0 0-.668-.684c-.287-.167-.649-.252-1.084-.252a2.48 2.48 0 0 0-1.144.252 2.332 2.332 0 0 0-.817.699 3.165 3.165 0 0 0-.489 1.024 4.411 4.411 0 0 0-.164 1.203v8.02h-4.9V36.33h4.722v2.05h.06c.179-.317.41-.628.698-.935.287-.307.624-.57 1.01-.788a6.304 6.304 0 0 1 1.263-.535c.455-.138.94-.208 1.455-.208.99 0 1.832.179 2.525.535a4.832 4.832 0 0 1 1.679 1.381c.426.564.733 1.213.921 1.945.187.733.282 1.466.282 2.199v9.148h-4.903ZM175.203 41.112c-.278-.357-.655-.643-1.129-.861a3.472 3.472 0 0 0-1.456-.327c-.516 0-.98.104-1.396.312a3.421 3.421 0 0 0-1.07.832c-.296.346-.53.748-.698 1.203-.168.456-.252.94-.252 1.456 0 .515.079 1 .237 1.455.158.456.391.857.698 1.203.307.347.673.62 1.1.817a3.37 3.37 0 0 0 1.44.297 4.04 4.04 0 0 0 1.47-.282 2.82 2.82 0 0 0 1.173-.817l2.703 3.297c-.614.594-1.407 1.06-2.376 1.396-.971.336-2 .505-3.089.505a9.796 9.796 0 0 1-3.273-.535 7.602 7.602 0 0 1-2.639-1.56 7.328 7.328 0 0 1-1.763-2.48c-.428-.97-.642-2.068-.642-3.296 0-1.208.214-2.298.642-3.268a7.338 7.338 0 0 1 1.763-2.48 7.792 7.792 0 0 1 2.639-1.575 9.464 9.464 0 0 1 3.243-.55c.535 0 1.064.05 1.589.15.525.098 1.029.233 1.515.401.485.168.931.376 1.336.624.406.248.759.52 1.055.817l-2.82 3.266ZM189.478 40.34a3.81 3.81 0 0 0-.639-.119 6.31 6.31 0 0 0-.608-.03c-.654 0-1.203.12-1.649.356a3.36 3.36 0 0 0-1.069.859 3.24 3.24 0 0 0-.579 1.096c-.119.395-.179.74-.179 1.036v7.584h-4.871V36.347h4.693v2.14h.06a4.816 4.816 0 0 1 1.604-1.856c.693-.478 1.495-.717 2.406-.717.198 0 .391.01.58.03.187.02.341.05.46.089l-.209 4.307ZM200.922 53.35a12.96 12.96 0 0 1-.995 2.065 6.233 6.233 0 0 1-1.306 1.545c-.505.425-1.1.746-1.783.965-.683.217-1.49.326-2.421.326-.456 0-.926-.03-1.41-.09a8.857 8.857 0 0 1-1.263-.236l.535-4.1a5.47 5.47 0 0 0 1.575.267c.752 0 1.297-.173 1.633-.52.337-.346.624-.836.862-1.47l.475-1.216-6.178-14.555h5.405l3.297 9.505h.09l2.941-9.505h5.168l-6.625 17.02ZM225.279 43.667c0 1.03-.159 2.02-.476 2.97a7.647 7.647 0 0 1-1.38 2.51 6.82 6.82 0 0 1-2.214 1.739c-.871.434-1.861.653-2.971.653-.91 0-1.771-.183-2.584-.55-.812-.365-1.445-.866-1.901-1.499h-.059v8.763h-4.871V36.33h4.634v1.812h.089c.456-.594 1.084-1.114 1.886-1.56.802-.445 1.747-.668 2.836-.668 1.07 0 2.039.208 2.911.624.871.416 1.609.98 2.213 1.693a7.695 7.695 0 0 1 1.397 2.48c.326.941.49 1.927.49 2.956Zm-4.723 0c0-.475-.074-.94-.222-1.396a3.627 3.627 0 0 0-.655-1.203 3.31 3.31 0 0 0-1.084-.847c-.435-.218-.94-.327-1.514-.327-.555 0-1.05.11-1.486.327a3.538 3.538 0 0 0-1.114.861 3.939 3.939 0 0 0-.712 1.218 3.986 3.986 0 0 0 0 2.792c.168.456.405.861.712 1.217.307.357.678.645 1.114.862.435.218.931.326 1.486.326.573 0 1.078-.108 1.514-.326a3.214 3.214 0 0 0 1.084-.862c.288-.356.506-.767.655-1.232.148-.465.222-.935.222-1.41ZM233.061 39.954v5.666c0 .695.134 1.216.402 1.565.266.348.746.521 1.44.521.237 0 .49-.019.757-.06.268-.039.49-.098.669-.178l.059 3.565a8.142 8.142 0 0 1-1.277.312c-.515.089-1.03.133-1.544.133-.991 0-1.823-.124-2.496-.372-.674-.248-1.213-.605-1.619-1.073a4.196 4.196 0 0 1-.876-1.667c-.179-.645-.267-1.365-.267-2.159v-6.253h-2.377V36.33h2.347V32.44h4.782v3.891h3.475v3.624h-3.475ZM107.101 29.689c-1.462 0-2.606 1.053-2.606 2.398 0 1.417.963 2.369 2.398 2.369.123 0 .239-.012.348-.034-.23 1.049-1.24 1.802-2.195 1.952l-.194.031v2.261l.251-.024a5.335 5.335 0 0 0 3.141-1.444c1.093-1.053 1.671-2.574 1.671-4.398 0-1.803-1.184-3.111-2.814-3.111Z" fill="#2C3C69"/><path d="M41.13 30.156h-5.384v-2.764a4.009 4.009 0 0 0-4.004-4.004 4.008 4.008 0 0 0-4.004 4.004v2.764h-5.384v-2.764c0-5.176 4.212-9.388 9.388-9.388 5.177 0 9.388 4.211 9.388 9.388v2.764Z" fill="#F9A11D"/><path d="M43.301 30.156H20.183a1.8 1.8 0 0 0-1.795 1.795v17.102a1.8 1.8 0 0 0 1.795 1.794H43.3a1.8 1.8 0 0 0 1.795-1.794V31.95a1.8 1.8 0 0 0-1.795-1.795Zm-10.388 11.23v2.317a1.172 1.172 0 0 1-2.342 0v-2.317a2.377 2.377 0 0 1 1.171-4.448 2.379 2.379 0 0 1 1.171 4.447Z" fill="#2C3C69"/><path d="M17.839 27.606H12.26a1.638 1.638 0 1 1 0-3.275h5.579a1.638 1.638 0 1 1 0 3.275ZM21.768 18.83c-.365 0-.734-.12-1.039-.372l-4.413-3.629a1.638 1.638 0 1 1 2.082-2.53l4.412 3.629a1.638 1.638 0 0 1-1.042 2.903ZM31.742 14.974a1.638 1.638 0 0 1-1.638-1.638V7.713a1.638 1.638 0 1 1 3.276 0v5.623c0 .905-.734 1.638-1.638 1.638ZM41.715 18.83a1.638 1.638 0 0 1-1.042-2.903l4.413-3.628a1.638 1.638 0 0 1 2.08 2.53l-4.412 3.629a1.628 1.628 0 0 1-1.04.373ZM51.224 27.606h-5.632a1.638 1.638 0 1 1 0-3.275h5.632a1.638 1.638 0 1 1 0 3.275Z" fill="#F9A11D"/></mask><g mask="url(#b)"><path fill="#4F79EB" d="M10 3h227v56H10z"/></g></g><defs><filter id="a" x="0" y="0" width="247" height="74" filterUnits="userSpaceOnUse" color-interpolation-filters="sRGB"><feFlood flood-opacity="0" result="BackgroundImageFix"/><feColorMatrix in="SourceAlpha" values="0 0 0 0 0 0 0 0 0 0 0 0 0 0 0 0 0 0 127 0" result="hardAlpha"/><feOffset dy="5"/><feGaussianBlur stdDeviation="5"/><feColorMatrix values="0 0 0 0 0.214468 0 0 0 0 0.373422 0 0 0 0 0.796094 0 0 0 0.3 0"/><feBlend in2="BackgroundImageFix" result="effect1_dropShadow_1_3778"/><feBlend in="SourceGraphic" in2="effect1_dropShadow_1_3778" result="shape"/></filter></defs></svg>